<?xml version="1.0" encoding="utf-8"?>
<!-- Generator: Adobe Illustrator 27.0.0, SVG Export Plug-In . SVG Version: 6.00 Build 0)  -->
<svg version="1.1" id="Bubble_2" xmlns="http://www.w3.org/2000/svg" xmlns:xlink="http://www.w3.org/1999/xlink" x="0px" y="0px"
	 viewBox="0 0 35 35" style="enable-background:new 0 0 35 35;" xml:space="preserve">
<style type="text/css">
	.st0{fill:url(#SVGID_1_);}
	.st1{fill:#FFFFFF;}
	.st2{opacity:0.5;fill:#FFFFFF;}
</style>
<g>
	<g>
		
			<radialGradient id="SVGID_1_" cx="62.893" cy="24.6393" r="4.4015" gradientTransform="matrix(2.741 0 0 2.741 -154.8891 -50.0362)" gradientUnits="userSpaceOnUse">
			<stop  offset="0.6054" style="stop-color:#FFFFFF;stop-opacity:0"/>
			<stop  offset="1" style="stop-color:#FFFFFF;stop-opacity:0.5"/>
		</radialGradient>
		<path class="st0" d="M29.6,17.5c0,6.7-5.4,12.1-12.1,12.1S5.4,24.2,5.4,17.5S9.8,5.7,17.5,5.4S29.6,10.8,29.6,17.5z"/>
		<path class="st1" d="M15.5,9c-3-1.4-6.9,2.3-7.6,5.5s0,7.3,2.8,9.3c0,0-2.2-7,2.2-9.5C16.7,12.2,18.3,10.3,15.5,9z"/>
		<path class="st2" d="M19.1,26.6c0,0,4,0.4,6.3-3.3s1.4-7,1.4-7s-0.4,3.3-2.9,6.1S19.1,26.6,19.1,26.6z"/>
	</g>
</g>
</svg>
