<?xml version="1.0" encoding="utf-8"?>
<!-- Generator: Adobe Illustrator 27.0.0, SVG Export Plug-In . SVG Version: 6.00 Build 0)  -->
<svg version="1.1" id="Bubble_4" xmlns="http://www.w3.org/2000/svg" xmlns:xlink="http://www.w3.org/1999/xlink" x="0px" y="0px"
	 viewBox="0 0 35 35" style="enable-background:new 0 0 35 35;" xml:space="preserve">
<style type="text/css">
	.st0{fill:url(#SVGID_1_);}
	.st1{fill:#FFFFFF;}
	.st2{opacity:0.5;fill:#FFF7F7;}
</style>
<g>
	
		<radialGradient id="SVGID_1_" cx="-1227.885" cy="376.2138" r="4.7637" gradientTransform="matrix(1.4627 0 0 1.4627 1813.5807 -532.8043)" gradientUnits="userSpaceOnUse">
		<stop  offset="0.3851" style="stop-color:#FFFFFF;stop-opacity:0"/>
		<stop  offset="1" style="stop-color:#FFFFFF;stop-opacity:0.5"/>
	</radialGradient>
	<path class="st0" d="M17.7,10.6c-6.9-0.2-8.9,7-5.9,10.9c3.4,4.4,10.4,3.4,12.1-1.2C26.1,14.9,22,10.7,17.7,10.6z"/>
	<path class="st1" d="M12.5,14.4c-0.9,1.8-1.2,4.4,0.1,6.2c0,0-0.7-3.8,3-5.8c2.9-1.5,0.4-3-0.4-2.6C14.7,12.3,13.4,12.8,12.5,14.4z
		"/>
	<path class="st2" d="M18.7,22.9c0,0,2.5,0.3,3.8-2.1s0.7-4.5,0.7-4.5s-0.2,2.1-1.6,4C20,22.1,18.7,22.9,18.7,22.9z"/>
</g>
</svg>
