<?xml version="1.0" encoding="utf-8"?>
<!-- Generator: Adobe Illustrator 27.0.0, SVG Export Plug-In . SVG Version: 6.00 Build 0)  -->
<svg version="1.1" id="Bubble_1" xmlns="http://www.w3.org/2000/svg" xmlns:xlink="http://www.w3.org/1999/xlink" x="0px" y="0px"
	 viewBox="0 0 35 35" style="enable-background:new 0 0 35 35;" xml:space="preserve">
<style type="text/css">
	.st0{fill:url(#SVGID_1_);}
	.st1{fill:#FFFFFF;}
	.st2{opacity:0.5;fill:#FFFFFF;}
</style>
<g>
	
		<radialGradient id="SVGID_1_" cx="62.893" cy="24.6393" r="5.6357" gradientTransform="matrix(2.741 0 0 2.741 -154.8891 -50.0362)" gradientUnits="userSpaceOnUse">
		<stop  offset="0.5655" style="stop-color:#FFFFFF;stop-opacity:0"/>
		<stop  offset="1" style="stop-color:#FFFFFF;stop-opacity:0.5"/>
	</radialGradient>
	<path class="st0" d="M18,2.2C2.6,1.8-1.8,17.8,5,26.5c7.6,9.8,23.3,7.7,27-2.6C36.3,11.7,27.6,2.4,18,2.2z"/>
	<path class="st1" d="M6.4,10.5c-2.1,3.9-2.6,9.9,0.3,13.7c0,0-1.6-8.6,6.6-13c6.5-3.4,1-6.5-1-5.8C11.2,5.9,8.4,6.9,6.4,10.5z"/>
	<path class="st2" d="M20,29.4c0,0,5.5,0.6,8.5-4.6s1.4-10.1,1.4-10.1s-0.4,4.7-3.6,8.8S20,29.4,20,29.4z"/>
</g>
</svg>
