<svg
 xmlns="http://www.w3.org/2000/svg"
 xmlns:xlink="http://www.w3.org/1999/xlink"
 width="156px" height="161px">
<path fill-rule="evenodd"  fill="rgb(0, 200, 255)"
 d="M152.623,105.360 C151.134,107.314 149.734,108.381 147.133,108.506 C145.759,108.571 144.376,108.408 142.996,108.331 C141.175,108.229 138.008,108.123 137.038,106.202 C136.170,104.483 136.777,102.655 137.038,100.917 C137.296,99.199 137.249,97.990 138.545,96.605 C139.443,95.645 140.531,94.951 141.646,94.261 C142.002,94.041 142.470,93.818 142.747,93.509 C142.823,93.424 143.325,92.430 143.254,92.438 C139.205,92.906 134.998,92.920 131.099,91.593 C128.835,90.823 123.666,88.499 124.078,85.378 C124.205,84.415 124.823,83.599 125.202,82.704 C125.573,81.828 125.714,80.855 125.608,79.909 C124.428,79.774 123.615,81.001 122.942,81.979 C121.993,83.355 120.761,84.535 119.343,85.420 C119.040,85.610 118.726,85.787 118.383,85.888 C117.902,86.030 117.391,86.014 116.891,85.997 C115.436,85.948 113.980,85.899 112.525,85.850 C111.993,85.832 111.440,85.817 110.954,86.033 C110.467,86.248 110.070,86.765 110.174,87.287 C115.714,87.437 120.103,88.605 124.767,91.606 C125.893,92.330 128.843,93.087 129.550,93.947 C129.648,94.065 129.755,94.179 129.893,94.264 C131.902,95.510 133.756,96.772 134.362,98.534 C135.091,100.643 133.898,103.035 132.724,105.110 C130.810,108.495 126.651,106.790 123.591,107.958 C121.964,108.579 120.913,109.089 119.035,109.074 C117.276,109.060 115.321,108.861 113.740,107.959 C112.288,107.131 111.146,105.915 109.711,105.197 C107.602,104.141 105.137,102.003 105.894,99.194 C106.689,96.242 111.020,96.998 113.109,97.514 C116.675,98.395 120.251,99.577 123.967,98.917 C123.394,98.259 122.412,98.226 121.552,98.163 C116.193,97.773 112.316,92.796 106.683,95.051 C105.780,95.412 104.931,95.934 104.258,96.637 C103.109,97.837 102.528,99.560 102.718,101.210 C103.399,107.150 113.215,109.711 117.025,113.342 C118.214,114.475 118.658,116.294 118.986,117.854 C119.235,119.043 119.707,122.562 118.443,123.358 C115.635,125.127 113.314,127.311 111.102,129.743 C109.024,132.027 105.908,129.482 103.377,129.131 C100.580,128.743 97.761,129.474 95.315,130.672 C92.992,131.811 90.093,134.827 87.256,133.057 C85.056,131.684 84.394,125.535 83.823,123.148 C83.390,121.338 83.545,119.069 85.137,118.104 C85.412,117.938 85.772,117.696 85.660,117.395 C85.581,117.181 85.311,117.124 85.084,117.100 C83.194,116.894 82.106,116.467 80.995,118.240 C79.001,121.424 81.532,124.470 82.472,127.421 C83.470,130.554 83.698,134.016 83.601,137.245 C83.580,137.311 83.540,137.366 83.529,137.438 C83.500,137.633 83.521,137.824 83.573,138.005 C83.855,138.990 83.436,140.560 83.415,141.583 C83.389,142.913 83.416,144.256 83.644,145.580 C83.753,146.213 85.531,151.396 86.356,149.788 C86.617,149.278 85.862,147.853 85.787,147.294 C85.643,146.221 85.862,145.131 85.934,144.069 C86.029,142.687 86.222,141.182 87.051,140.049 C88.355,138.266 90.223,137.113 92.031,135.894 C93.567,134.857 95.021,133.880 96.605,133.104 C98.307,132.268 101.620,131.039 104.673,132.201 C106.483,132.889 107.982,134.216 109.337,135.566 C110.652,136.877 111.406,138.489 113.124,139.280 C115.126,140.203 117.128,141.125 119.130,142.048 C118.501,141.758 117.748,140.022 117.200,139.474 C116.609,138.885 115.905,138.475 115.279,137.917 C114.090,136.854 112.063,135.434 112.056,133.689 C112.045,130.860 116.317,128.087 118.305,126.583 C122.672,123.278 127.340,122.067 132.864,123.391 C133.514,123.547 134.163,123.728 134.767,124.021 C135.236,124.249 135.673,124.541 136.138,124.778 C137.118,125.275 138.201,125.511 139.269,125.742 C137.901,123.526 135.763,121.888 133.339,120.966 C130.602,119.926 127.989,120.247 125.135,119.938 C123.493,119.761 122.211,119.021 121.599,117.385 C121.136,116.149 120.963,114.240 121.619,113.085 C124.084,108.747 131.894,109.706 136.118,110.026 C137.695,110.146 139.558,110.480 140.874,111.459 C142.018,112.310 143.284,112.519 144.465,113.236 C145.411,113.810 146.209,114.819 146.875,115.684 C148.208,117.417 149.162,119.412 149.697,121.500 C150.707,125.430 150.276,129.748 148.291,133.198 C146.731,135.909 144.171,137.967 141.008,138.566 C139.214,138.906 137.343,138.767 135.551,138.312 C133.738,137.852 131.584,137.203 130.159,135.953 C129.611,135.473 129.068,134.965 128.409,134.656 C127.751,134.347 126.937,134.271 126.351,134.658 C131.485,137.237 130.844,144.843 128.056,148.652 C125.576,152.042 121.191,153.117 117.050,152.749 C114.549,152.526 112.083,151.818 109.763,150.810 C107.000,149.609 104.256,147.867 101.759,146.175 C101.363,145.907 100.897,145.613 100.452,145.746 C100.488,146.160 100.644,146.567 100.897,146.907 C101.041,147.100 101.215,147.273 101.327,147.484 C101.450,147.717 101.489,147.980 101.517,148.238 C102.019,152.855 96.800,157.513 92.986,159.346 C89.117,161.204 84.473,161.555 80.275,160.123 C76.343,158.781 73.807,155.916 73.066,151.900 C72.127,146.812 74.625,140.695 71.860,135.884 C71.664,135.541 71.362,135.167 70.973,135.192 C70.410,135.229 70.309,135.987 70.365,136.546 C71.069,143.616 70.412,151.743 64.731,156.759 C62.749,158.509 60.329,159.768 57.724,160.410 C46.905,163.078 36.655,154.218 36.790,143.227 C36.816,141.047 36.243,138.863 36.037,136.684 C35.996,136.379 35.947,136.057 35.750,135.813 C35.697,135.747 35.628,135.686 35.545,135.678 C35.398,135.665 35.303,135.817 35.246,135.949 C34.317,138.074 34.240,139.789 34.210,142.076 C34.186,143.947 32.990,145.905 31.778,147.268 C29.188,150.183 24.834,150.440 21.123,149.463 C16.968,148.369 13.430,145.397 11.639,141.506 C8.421,134.514 11.568,127.109 16.717,122.330 C15.050,123.878 8.835,121.092 7.263,120.069 C4.682,118.389 2.739,115.861 1.636,113.036 C-0.745,106.939 0.940,99.363 7.451,96.974 C9.282,96.302 11.268,96.114 13.223,95.882 C14.154,95.772 15.323,95.394 15.309,94.461 C15.300,93.874 14.757,93.387 14.184,93.213 C13.610,93.040 13.004,93.100 12.412,93.115 C-3.344,93.526 -0.230,71.284 7.776,64.697 C10.886,62.138 15.163,61.137 19.242,61.672 C23.446,62.224 27.542,65.077 31.538,66.530 C36.070,68.179 41.254,67.953 45.391,65.736 C46.385,65.203 47.428,64.545 48.571,64.714 C49.172,64.804 49.721,65.117 50.252,65.424 C51.285,66.021 52.366,66.664 52.978,67.681 C53.951,69.298 53.872,73.078 53.800,74.978 C53.698,77.655 52.526,80.622 50.087,81.925 C48.574,82.734 47.541,83.034 46.684,84.507 C45.873,85.900 45.685,87.660 45.137,89.164 C44.755,90.215 45.335,91.392 45.072,92.515 C44.533,94.812 43.181,95.816 40.926,95.841 C39.782,95.854 38.369,95.829 37.394,96.474 C36.884,96.811 35.997,97.553 35.977,98.230 C35.942,99.472 36.703,98.853 37.426,98.628 C39.914,97.855 42.691,98.438 45.148,97.587 C46.674,97.059 46.994,95.732 47.355,94.261 C48.007,91.597 46.630,87.316 49.585,85.998 C50.434,85.619 51.379,85.475 52.318,85.394 C54.820,85.180 56.904,85.387 59.199,86.335 C61.686,87.362 64.815,87.245 67.410,87.176 C68.473,87.148 69.597,87.620 70.344,88.406 C71.279,89.390 72.080,90.752 72.891,91.856 C73.634,92.869 74.426,93.864 75.411,94.650 C76.396,95.435 77.597,96.004 78.839,96.040 C78.819,95.190 77.922,94.645 77.211,94.140 C75.581,92.984 75.128,91.597 74.340,89.933 C73.809,88.791 73.259,87.611 72.297,86.597 C69.136,83.266 64.780,84.640 60.854,83.960 C56.989,83.291 55.762,80.124 56.362,76.664 C56.794,74.178 57.671,71.643 59.503,69.866 C61.185,68.235 63.525,67.836 65.682,67.081 C66.690,66.729 67.675,66.268 68.650,65.891 C69.830,65.434 70.708,64.572 71.835,64.021 C75.126,62.411 78.215,63.437 80.802,65.867 C82.227,67.207 83.394,68.806 84.631,70.500 C86.184,72.627 87.460,74.239 89.778,75.593 C91.302,76.483 93.133,76.820 94.833,76.524 C93.034,75.265 91.171,74.402 89.718,72.645 C88.720,71.439 87.746,70.242 86.822,68.977 C85.563,67.252 84.261,65.467 82.640,63.944 C80.096,61.554 76.090,60.887 75.287,57.195 C74.659,54.299 75.828,51.575 76.250,48.784 C76.342,48.175 76.808,47.170 76.633,46.661 C76.564,46.461 76.426,46.239 76.215,46.226 C76.019,46.214 75.876,46.390 75.775,46.553 C75.436,47.102 75.188,47.701 74.940,48.298 C74.179,50.137 73.416,51.978 72.838,53.888 C72.500,55.008 72.009,56.009 71.605,57.098 C70.441,60.234 68.495,62.659 66.126,63.925 C63.352,65.405 59.762,65.345 56.985,63.771 C53.911,62.028 52.739,59.184 51.070,56.321 C49.467,53.714 49.907,50.522 48.371,47.901 C48.298,47.776 48.216,47.644 48.083,47.586 C47.908,47.509 47.700,47.598 47.588,47.745 C47.476,47.892 47.440,48.082 47.414,48.266 C46.973,51.390 48.758,54.429 47.471,57.387 C45.220,62.560 41.597,65.011 35.625,64.898 C34.295,64.872 32.948,64.730 31.680,64.280 C30.224,63.764 28.931,62.863 27.660,61.974 C23.738,59.232 20.441,55.696 19.532,50.928 C18.865,47.429 19.522,43.866 20.658,40.607 C21.282,38.814 22.200,36.912 23.252,35.339 C23.890,34.385 25.075,33.572 25.235,32.366 C25.774,28.295 20.988,28.516 18.486,28.226 C16.422,27.987 14.403,27.215 12.600,26.157 C9.134,24.124 6.156,20.803 5.100,16.929 C3.114,9.638 8.531,3.813 14.786,2.104 C19.471,0.824 23.407,1.305 27.812,3.635 C29.586,4.573 33.473,8.129 34.746,9.677 C41.592,17.999 39.354,25.287 37.604,31.428 C36.221,36.277 33.758,40.704 31.512,45.195 C30.639,46.941 29.775,48.882 30.256,50.822 C30.737,52.762 33.266,54.310 34.813,53.116 C34.491,51.219 34.272,49.492 34.562,47.593 C34.861,45.628 35.600,43.758 36.759,42.163 C38.927,39.180 42.414,37.327 46.118,36.838 C48.692,36.498 51.403,36.805 53.840,37.857 C55.033,38.373 56.153,39.064 57.137,39.918 C58.729,41.299 59.571,43.727 59.496,45.689 C59.396,48.294 58.980,51.880 60.675,54.199 C61.013,54.661 61.495,55.066 62.058,55.140 C62.130,55.149 62.209,55.151 62.265,55.108 C62.335,55.055 62.341,54.954 62.337,54.865 C62.283,53.494 61.726,52.398 61.878,51.008 C62.040,49.518 61.914,48.011 62.070,46.523 C62.383,43.534 63.490,40.695 66.019,38.952 C69.869,36.299 74.956,35.307 79.675,36.258 C81.984,36.724 84.221,37.674 86.103,39.137 C88.386,40.912 90.016,43.967 90.578,46.710 C91.376,50.610 89.193,52.917 85.667,54.186 C85.434,54.270 85.170,54.375 85.097,54.610 C85.031,54.820 85.159,55.062 85.348,55.190 C85.538,55.318 85.774,55.352 85.999,55.355 C86.757,55.363 87.466,55.058 88.145,54.752 C89.437,54.169 91.301,53.768 91.911,52.364 C92.475,51.066 92.869,49.428 93.288,48.053 C94.644,43.594 99.024,41.503 103.636,41.935 C106.049,42.161 108.442,42.961 110.517,44.271 C112.567,45.565 114.306,47.373 115.360,49.546 C115.909,50.676 116.263,51.884 116.419,53.113 C116.662,55.030 116.805,56.344 115.584,57.776 C114.899,58.579 114.176,59.771 113.265,60.294 C111.837,61.114 110.410,61.934 108.982,62.754 C108.873,62.817 108.756,62.891 108.723,63.012 C108.657,63.259 108.977,63.445 109.237,63.485 C110.491,63.677 112.068,62.939 113.218,62.543 C119.835,60.266 121.100,52.133 116.685,46.690 C115.392,45.097 114.604,43.451 112.897,42.304 C109.093,39.749 106.695,37.810 105.216,33.343 C102.860,26.221 103.169,19.566 105.993,12.514 C109.068,4.834 128.408,-7.226 143.029,5.966 C147.202,9.730 147.375,18.950 144.197,23.331 C140.767,28.060 134.482,28.831 129.050,26.835 C126.827,26.019 123.433,25.704 121.855,27.860 C119.710,30.790 122.638,34.788 124.447,37.201 C128.353,42.410 132.336,48.122 132.366,54.759 C132.390,60.103 127.726,65.720 123.128,68.073 L123.069,68.279 C121.941,68.934 120.846,69.643 119.796,70.412 C118.314,71.500 117.143,72.034 115.290,72.207 C113.172,72.401 111.009,72.450 108.868,72.343 C107.295,72.266 105.677,72.082 104.488,71.271 C103.627,70.685 102.938,69.728 102.271,68.803 C100.356,66.139 98.771,63.458 99.720,60.204 C100.598,57.191 103.373,55.982 104.810,53.426 C105.117,52.880 105.383,52.211 105.103,51.628 C105.074,51.569 105.034,51.507 104.970,51.491 C104.916,51.478 104.862,51.502 104.813,51.526 C102.622,52.612 101.493,54.490 99.860,56.161 C98.540,57.512 96.954,59.064 95.404,60.155 C93.796,61.287 91.933,62.020 90.127,62.800 C90.025,62.844 89.914,62.898 89.877,63.002 C89.821,63.160 89.966,63.322 90.110,63.419 C91.178,64.136 92.577,63.629 93.841,63.773 C94.547,63.853 95.219,64.144 95.866,64.454 C97.825,65.390 98.827,68.584 100.069,70.311 C100.584,71.026 101.156,71.798 101.851,72.495 C102.479,75.342 102.170,78.382 101.016,81.001 C100.987,81.043 100.944,81.072 100.920,81.119 C99.529,83.790 98.139,86.422 94.960,87.068 C92.282,87.612 89.242,87.062 86.754,85.955 C84.296,84.862 82.076,83.089 79.592,81.931 C78.987,81.653 78.416,81.388 77.986,81.040 C76.600,79.918 76.652,77.979 75.063,76.923 C74.536,76.572 73.922,76.383 73.319,76.200 C72.815,76.046 72.311,75.893 71.807,75.740 C70.922,75.470 69.878,75.225 69.172,75.774 C69.141,75.944 69.366,76.042 69.539,76.081 C71.092,76.432 72.503,77.457 73.318,78.828 C74.188,80.292 74.949,82.005 76.312,83.106 C77.021,83.678 77.817,84.046 78.675,84.444 C81.530,85.767 84.753,87.307 86.510,90.049 C88.527,93.196 88.560,97.539 89.180,101.065 C89.294,101.708 89.406,102.379 89.222,102.994 C89.025,103.653 88.504,104.171 87.901,104.504 C85.543,105.808 82.001,105.305 79.324,105.408 C76.728,105.545 73.863,106.320 71.271,106.051 C68.893,105.803 68.163,104.182 67.525,102.156 C67.196,101.112 66.887,99.714 65.992,98.972 C65.637,98.678 65.161,98.605 64.787,98.339 C64.240,97.951 63.898,97.345 63.375,96.927 C63.056,96.672 62.687,96.487 62.322,96.305 C61.401,95.845 60.480,95.386 59.560,94.926 C58.793,94.544 57.863,94.161 57.149,94.580 C57.049,94.638 61.831,99.001 62.157,99.495 C64.145,102.503 66.096,106.878 65.486,110.475 C65.171,112.328 64.446,113.792 64.423,115.696 C64.402,117.366 64.203,119.171 62.721,120.171 C61.734,120.837 60.434,120.846 59.216,120.831 C58.094,120.817 56.942,120.799 55.881,120.392 C54.714,119.945 53.763,119.071 52.722,118.372 C51.681,117.673 50.396,117.127 49.225,117.470 C49.089,118.128 49.678,118.728 50.232,119.148 C52.588,120.932 55.509,122.293 56.827,124.911 C57.291,125.831 57.706,126.899 58.038,127.867 C58.158,128.217 58.169,128.675 58.298,128.996 C58.361,129.153 58.805,129.781 58.807,129.864 C58.840,130.980 58.980,132.079 59.122,133.141 C59.275,134.289 59.421,135.374 59.426,136.449 C59.433,137.789 58.987,138.746 58.543,139.929 C58.130,141.029 57.983,142.128 57.374,143.162 C56.216,145.130 54.373,146.596 52.617,148.013 C52.369,148.212 52.093,148.485 52.183,148.797 C52.993,149.026 53.842,148.709 54.527,148.266 C56.729,146.840 58.473,145.844 59.938,143.543 C61.252,141.479 62.170,139.052 62.157,136.544 C62.151,135.296 61.988,134.074 61.829,132.893 C61.286,128.832 60.621,123.838 65.709,122.717 C67.895,122.236 70.320,122.964 72.066,124.452 C72.532,124.849 72.966,125.304 73.518,125.565 C73.848,124.885 73.527,124.020 72.983,123.455 C72.438,122.889 71.710,122.545 71.024,122.163 C68.403,120.705 66.817,118.531 67.410,115.597 C67.951,112.921 69.687,110.460 72.201,109.311 C74.399,108.306 77.008,108.210 79.541,108.107 C81.830,108.020 84.119,107.927 86.409,107.845 C89.125,107.747 93.909,107.307 95.441,110.211 C96.719,112.635 96.270,116.822 96.028,119.425 C95.996,119.764 95.971,120.128 96.143,120.422 C96.335,120.751 96.721,120.904 97.079,121.034 C101.947,122.804 105.407,122.287 109.450,119.042 C108.900,118.568 108.096,118.950 107.423,119.164 C106.718,119.388 105.956,119.395 105.206,119.389 C104.267,119.382 103.316,119.357 102.397,119.120 C100.210,118.555 99.358,117.082 99.340,115.042 C99.308,111.279 97.545,107.464 95.165,104.491 C94.452,103.601 93.390,103.099 92.868,102.124 C92.303,101.067 92.028,99.729 91.715,98.587 C91.205,96.730 90.241,94.158 91.234,92.401 C91.801,91.396 92.879,90.264 94.052,89.952 C95.354,89.606 96.697,89.988 97.976,89.280 C99.867,88.236 101.824,85.144 102.782,83.477 C103.615,82.028 104.013,80.432 104.978,79.001 C105.501,78.226 106.037,77.436 106.789,76.877 C109.064,75.184 112.976,75.577 115.691,74.891 C119.237,73.993 122.155,72.368 125.496,70.968 C126.874,70.392 128.303,69.805 129.821,69.841 C131.084,69.871 132.309,70.333 133.501,70.795 C134.389,71.140 135.290,71.496 136.045,72.083 C138.646,74.105 139.387,79.345 136.881,81.449 C136.408,81.845 135.852,82.152 135.456,82.623 C135.059,83.094 134.857,83.811 135.204,84.347 C135.624,84.616 136.183,84.411 136.534,84.084 C136.884,83.758 137.124,83.323 137.501,83.026 C140.213,80.895 144.136,81.195 146.983,82.943 C150.242,84.943 152.981,88.241 154.278,91.794 C155.983,96.410 155.553,101.514 152.623,105.360 ZM56.630,108.121 C56.878,108.150 57.219,108.091 57.277,107.894 C57.286,107.862 57.288,107.825 57.280,107.785 C57.261,107.687 57.184,107.610 57.106,107.544 C56.660,107.165 56.105,106.941 55.563,106.725 C53.764,106.007 51.860,104.807 49.873,104.912 C47.946,104.690 45.101,104.534 42.656,105.705 C41.041,106.477 39.766,107.747 38.743,109.178 C37.393,111.067 33.834,110.877 31.861,109.976 C29.600,108.944 28.021,106.793 27.663,104.389 C27.448,102.946 27.337,101.258 27.623,99.840 C28.411,95.933 27.053,92.240 30.358,89.242 C31.983,87.769 34.015,86.809 35.829,85.566 C37.643,84.322 39.325,82.643 39.720,80.469 C38.009,79.772 36.155,80.820 34.866,82.045 C33.576,83.271 32.402,84.776 30.661,85.248 C28.970,85.707 27.102,85.056 25.617,84.039 C24.132,83.021 22.923,81.661 21.586,80.456 C18.995,78.122 15.794,76.331 12.368,75.933 C12.108,76.752 12.550,77.681 13.201,78.288 C13.853,78.895 14.685,79.260 15.473,79.673 C24.360,84.324 27.366,94.959 23.537,103.474 C23.032,104.598 22.813,106.096 21.866,106.916 C19.984,108.545 16.588,108.594 14.187,108.422 C13.963,108.406 13.730,108.387 13.523,108.466 C13.317,108.544 13.146,108.753 13.191,108.972 C13.251,109.264 13.613,109.378 13.909,109.432 C14.876,109.607 15.842,109.783 16.808,109.958 C18.398,110.247 19.918,110.505 21.495,110.298 C23.193,110.076 24.933,109.929 26.644,110.320 C29.795,111.045 32.527,113.844 33.140,116.982 C33.630,119.489 31.573,122.603 30.458,124.629 C28.701,127.821 26.684,130.736 24.712,133.772 C24.457,134.165 24.191,134.611 24.287,135.082 C25.331,135.174 26.250,134.516 27.014,133.842 C28.480,132.548 29.318,131.090 30.429,129.575 C32.002,127.430 35.619,126.235 38.160,127.078 C39.899,127.654 41.256,128.640 41.980,129.853 C42.713,131.080 42.326,132.361 42.734,133.593 C43.199,134.994 44.696,136.395 45.861,137.250 C46.456,137.687 47.155,138.076 47.876,138.015 C47.709,137.191 47.141,136.500 46.659,135.796 C45.130,133.563 45.672,130.816 44.317,128.548 C42.575,125.632 39.547,125.235 37.016,123.421 C36.397,122.976 35.902,122.285 35.897,121.542 C35.880,119.258 37.929,116.544 38.896,114.556 C40.285,111.701 41.623,109.247 43.923,108.148 C47.466,106.456 52.814,107.663 56.630,108.121 Z"/>
<path fill-rule="evenodd"  fill="rgb(0, 0, 0)"
 d="M128.316,6.156 C120.135,9.145 119.250,23.849 133.959,23.068 C148.667,22.287 142.279,1.055 128.316,6.156 Z"/>
<path fill-rule="evenodd"  fill="rgb(0, 0, 0)"
 d="M16.123,6.101 C9.357,8.000 7.553,15.471 12.502,20.491 C17.451,25.511 25.676,22.363 27.546,15.852 C29.416,9.342 22.663,4.266 16.123,6.101 Z"/>
<path fill-rule="evenodd"  fill="rgb(255, 255, 255)"
 d="M13.749,10.550 C13.715,10.578 13.681,10.607 13.647,10.637 C11.876,12.208 13.424,15.315 15.847,14.469 C19.504,13.190 16.643,8.160 13.749,10.550 Z"/>
<path fill-rule="evenodd"  fill="rgb(255, 255, 255)"
 d="M132.828,11.863 C131.682,8.116 126.234,10.508 128.592,13.596 C128.620,13.632 128.648,13.669 128.678,13.705 C130.234,15.605 133.588,14.346 132.828,11.863 Z"/>
<path fill-rule="evenodd"  fill="rgb(255, 255, 255)"
 d="M13.078,64.813 C7.932,66.397 4.467,70.685 4.467,77.339 C4.467,77.339 7.011,70.097 11.513,68.336 C16.014,66.574 15.623,64.030 13.078,64.813 Z"/>
<path fill-rule="evenodd"  fill="rgb(255, 255, 255)"
 d="M43.806,40.544 C40.283,41.522 37.935,44.262 37.739,48.373 C37.543,52.483 37.935,47.198 40.479,44.850 C43.023,42.501 43.806,40.544 43.806,40.544 Z"/>
<path fill-rule="evenodd"  fill="rgb(255, 255, 255)"
 d="M71.990,38.978 C67.229,40.338 64.357,42.697 64.357,48.373 C64.357,54.048 64.552,46.807 66.705,44.654 C68.858,42.501 73.360,38.587 71.990,38.978 Z"/>
<path fill-rule="evenodd"  fill="rgb(255, 255, 255)"
 d="M64.357,71.076 C65.906,69.895 61.117,72.621 60.191,73.751 C58.969,75.242 58.543,77.039 58.877,78.709 C59.464,81.645 62.008,81.253 61.225,79.688 C60.442,78.122 60.247,74.207 64.357,71.076 Z"/>
<path fill-rule="evenodd"  fill="rgb(255, 255, 255)"
 d="M8.185,100.629 C3.097,102.782 1.727,109.437 4.271,113.547 C6.815,117.657 10.338,118.048 10.338,118.048 C10.338,118.048 6.424,115.700 5.250,110.415 C4.075,105.131 8.185,100.629 8.185,100.629 Z"/>
<path fill-rule="evenodd"  fill="rgb(255, 255, 255)"
 d="M125.225,126.073 C121.507,127.639 116.809,130.770 116.809,133.706 C116.809,136.642 118.571,137.425 118.766,134.489 C118.962,131.553 125.225,126.073 125.225,126.073 Z"/>
<path fill-rule="evenodd"  fill="rgb(255, 255, 255)"
 d="M72.324,112.326 C71.360,113.228 70.522,114.342 70.280,115.640 C70.038,116.938 70.522,118.430 71.672,119.079 C71.315,118.037 71.775,116.911 72.227,115.907 C72.711,114.834 73.195,113.760 73.679,112.687 C73.957,112.070 74.322,111.497 74.755,110.987 C73.835,111.046 73.012,111.683 72.324,112.326 Z"/>
<path fill-rule="evenodd"  fill="rgb(255, 255, 255)"
 d="M16.406,142.318 C17.669,144.001 20.543,145.688 22.618,146.041 C21.054,145.783 17.079,139.390 16.555,137.346 C16.309,136.387 15.231,134.097 16.601,129.400 C10.338,135.076 15.584,141.223 16.406,142.318 Z"/>
<path fill-rule="evenodd"  fill="rgb(255, 255, 255)"
 d="M32.455,90.844 C30.106,92.605 29.910,101.412 30.497,103.957 C31.084,106.501 33.042,106.501 32.063,101.1000 C31.084,97.498 32.455,90.844 32.455,90.844 Z"/>
<path fill-rule="evenodd"  fill="rgb(255, 255, 255)"
 d="M116.614,7.467 C108.589,12.556 106.045,19.602 107.023,27.039 C108.002,34.477 115.439,39.761 115.439,39.761 C115.439,39.761 108.198,32.911 109.372,22.733 C110.546,12.556 116.614,7.467 116.614,7.467 Z"/>
<path fill-rule="evenodd"  fill="rgb(255, 255, 255)"
 d="M25.213,36.042 C22.277,40.935 19.537,48.764 22.864,53.853 C26.192,58.941 28.736,59.333 28.736,59.333 C28.736,59.333 23.647,53.461 23.647,47.590 C23.647,41.718 25.213,36.042 25.213,36.042 Z"/>
<path fill-rule="evenodd"  fill="rgb(255, 255, 255)"
 d="M125.880,117.695 C125.590,115.936 125.262,113.561 126.474,112.077 C125.510,112.828 124.253,113.659 124.027,114.943 C123.704,116.780 125.764,116.988 125.880,117.695 Z"/>
<path fill-rule="evenodd"  fill="rgb(255, 255, 255)"
 d="M100.173,134.880 C95.742,135.893 90.041,138.693 88.830,145.717 C88.830,145.717 92.188,141.391 95.547,138.933 C98.738,136.598 100.173,134.880 100.173,134.880 Z"/>
<path fill-rule="evenodd"  fill="rgb(255, 255, 255)"
 d="M65.531,126.269 C64.626,127.561 62.987,130.574 63.965,134.685 C64.944,138.795 63.770,144.666 60.638,146.623 C60.638,146.623 66.314,142.513 65.922,136.250 C65.531,129.987 66.901,124.311 65.531,126.269 Z"/>
<path fill-rule="evenodd"  fill="rgb(255, 255, 255)"
 d="M44.589,110.611 C42.436,112.373 39.305,118.636 39.892,120.593 C40.479,122.550 43.219,123.724 43.219,123.724 C43.219,123.724 41.066,121.571 41.849,119.418 C42.632,117.266 44.589,110.611 44.589,110.611 Z"/>
<path fill-rule="evenodd"  fill="rgb(255, 255, 255)"
 d="M102.326,44.067 C97.433,44.458 95.867,47.003 94.302,50.721 C94.302,50.721 100.760,44.654 104.870,44.654 L102.326,44.067 Z"/>
<path fill-rule="evenodd"  fill="rgb(255, 255, 255)"
 d="M121.682,55.027 C121.580,58.196 119.979,63.416 112.925,64.442 C105.728,65.489 119.403,67.013 122.083,61.267 C124.246,56.627 121.682,55.027 121.682,55.027 Z"/>
<path fill-rule="evenodd"  fill="rgb(255, 255, 255)"
 d="M114.852,78.318 C110.155,77.535 108.002,78.709 106.436,82.232 C104.870,85.755 102.326,89.278 100.173,90.256 C98.020,91.235 105.458,89.474 107.023,84.972 C108.589,80.470 114.852,78.318 114.852,78.318 Z"/>
<path fill-rule="evenodd"  fill="rgb(255, 255, 255)"
 d="M39.305,141.926 C39.696,147.015 40.088,155.039 49.874,157.192 C49.874,157.192 45.493,154.667 43.340,149.969 C41.187,145.272 39.305,141.926 39.305,141.926 Z"/>
<path fill-rule="evenodd"  fill="rgb(255, 255, 255)"
 d="M143.231,96.128 C139.904,98.477 138.345,100.950 141.078,103.957 C143.036,106.110 146.167,104.935 146.167,104.935 C146.167,104.935 143.231,104.740 142.253,101.608 C141.274,98.477 143.231,96.128 143.231,96.128 Z"/>
</svg>
