<svg
 xmlns="http://www.w3.org/2000/svg"
 xmlns:xlink="http://www.w3.org/1999/xlink"
 width="169px" height="166px">
<path fill-rule="evenodd"  fill="rgb(255, 0, 0)"
 d="M34.406,141.977 C28.048,137.750 16.858,137.321 11.748,143.725 C3.482,154.088 14.435,167.162 25.924,165.602 C41.386,163.502 44.135,148.689 34.619,142.121 C34.549,142.072 34.478,142.024 34.406,141.977 Z"/>
<path fill-rule="evenodd"  fill="rgb(255, 0, 0)"
 d="M167.658,70.147 C171.411,61.805 162.608,53.718 154.299,57.677 C146.062,61.604 148.509,70.042 150.640,72.462 C153.504,75.713 163.904,78.489 167.658,70.147 Z"/>
<path fill-rule="evenodd"  fill="rgb(255, 0, 0)"
 d="M158.157,159.549 C148.004,167.435 131.750,168.662 122.334,159.682 C119.138,156.635 117.608,152.230 116.494,148.004 C115.551,144.423 116.494,135.769 109.543,131.042 C106.627,129.059 97.308,126.037 92.025,132.989 C86.973,139.636 85.405,152.221 78.956,157.180 C73.408,161.447 68.237,161.327 61.717,158.848 C48.291,153.744 54.105,138.810 42.808,128.818 C35.579,122.422 22.156,126.346 13.881,124.638 C7.345,123.289 2.899,117.032 1.525,110.621 C0.321,105.006 0.881,97.043 4.866,92.711 C8.877,88.352 14.767,84.898 20.430,83.283 C25.201,81.924 30.500,81.492 35.435,81.400 C40.288,81.311 44.528,81.558 48.357,77.919 C55.177,71.436 57.140,62.510 51.150,55.410 C47.660,51.272 44.106,48.061 39.472,45.678 C29.740,40.673 21.299,36.651 20.564,27.048 C19.766,16.639 28.164,8.047 41.882,11.013 C52.463,13.301 57.472,25.262 66.610,29.731 C73.180,32.944 80.392,30.216 84.815,25.820 C89.237,21.423 91.937,15.514 96.138,10.880 C102.306,4.076 110.751,2.080 119.385,0.554 C124.045,-0.270 130.995,-0.346 135.410,1.396 C148.196,6.439 161.453,21.604 159.095,36.356 C158.089,42.648 153.879,48.341 148.158,51.146 C143.911,53.229 139.041,53.753 134.759,55.764 C126.444,59.668 126.258,69.184 127.606,77.144 C129.910,90.755 137.686,103.361 148.529,111.503 C157.085,117.928 165.951,122.661 167.110,134.379 C168.025,143.620 165.661,153.722 158.157,159.549 ZM101.121,36.781 C92.897,33.781 81.221,36.805 73.145,43.544 C64.303,50.923 60.494,60.978 60.332,70.180 C60.201,77.650 67.824,84.839 79.302,81.247 C90.015,77.895 98.702,69.800 103.827,63.302 C106.808,59.522 109.431,55.516 110.176,51.437 C111.276,45.414 107.651,39.163 101.121,36.781 ZM126.390,98.547 C124.241,91.346 120.332,81.131 113.690,76.776 C107.961,73.020 100.048,76.148 96.353,81.154 C91.662,87.510 90.992,96.576 93.027,104.017 C96.290,115.951 107.696,127.664 121.209,124.313 C129.475,122.263 128.244,104.762 126.390,98.547 Z"/>
<path fill-rule="evenodd"  fill="rgb(255, 255, 255)"
 d="M18.478,89.889 C15.617,87.426 5.349,94.691 5.016,105.656 C4.682,116.620 10.815,117.403 10.815,117.403 C10.815,117.403 5.131,112.968 8.824,101.479 C11.023,94.636 21.339,92.353 18.478,89.889 Z"/>
<path fill-rule="evenodd"  fill="rgb(0, 0, 0)"
 d="M65.163,132.582 C57.364,134.819 55.509,144.420 61.419,151.069 C67.330,157.719 76.783,153.915 78.746,145.557 C80.709,137.199 72.701,130.419 65.163,132.582 Z"/>
<path fill-rule="evenodd"  fill="rgb(255, 255, 255)"
 d="M62.767,138.705 C62.726,138.739 62.685,138.775 62.643,138.811 C60.491,140.719 62.371,144.494 65.315,143.466 C69.758,141.913 66.283,135.802 62.767,138.705 Z"/>
<path fill-rule="evenodd"  fill="rgb(0, 0, 0)"
 d="M33.417,15.954 C25.197,18.260 23.007,27.335 29.018,33.433 C35.030,39.532 45.021,35.708 47.293,27.799 C49.564,19.890 41.361,13.724 33.417,15.954 Z"/>
<path fill-rule="evenodd"  fill="rgb(255, 255, 255)"
 d="M30.533,21.358 C30.492,21.392 30.451,21.427 30.409,21.463 C28.257,23.371 30.138,27.146 33.081,26.118 C37.524,24.565 34.049,18.454 30.533,21.358 Z"/>
<path fill-rule="evenodd"  fill="rgb(173, 0, 0)"
 d="M132.193,149.572 C130.185,150.915 128.761,152.736 130.961,155.138 C134.884,159.424 140.466,158.664 144.070,157.421 C150.805,155.099 158.392,149.113 159.324,141.613 C159.562,139.696 159.234,137.328 158.127,135.249 C157.169,133.447 154.991,131.023 153.279,132.059 C151.101,133.376 149.833,135.151 148.193,137.021 C144.828,140.856 140.926,144.745 136.371,147.339 C135.470,147.852 133.673,148.582 132.193,149.572 Z"/>
<path fill-rule="evenodd"  fill="rgb(255, 255, 255)"
 d="M130.680,150.862 C136.700,152.334 141.269,152.259 146.813,147.097 C152.356,141.935 153.472,136.213 152.457,132.606 C152.457,132.606 148.764,136.926 142.418,142.834 C136.073,148.743 130.680,150.862 130.680,150.862 Z"/>
<path fill-rule="evenodd"  fill="rgb(212, 212, 212)"
 d="M130.485,150.882 C134.626,147.861 138.658,146.001 142.666,142.269 C146.673,138.537 149.102,135.759 152.499,132.423 C152.499,132.423 150.114,138.261 144.407,143.576 C138.700,148.890 130.485,150.882 130.485,150.882 Z"/>
<path fill-rule="evenodd"  fill="rgb(255, 255, 255)"
 d="M122.334,4.247 C116.494,4.525 105.094,7.862 99.811,14.257 C94.528,20.652 90.913,26.770 90.913,26.770 C90.913,26.770 101.673,16.340 108.153,12.589 C118.719,6.471 131.232,5.359 131.232,5.359 C131.232,5.359 128.173,3.969 122.334,4.247 Z"/>
<path fill-rule="evenodd"  fill="rgb(255, 255, 255)"
 d="M114.548,40.117 C118.163,51.239 113.992,60.137 107.597,65.142 C107.597,65.142 116.209,62.020 117.885,55.132 C120.387,44.844 114.548,40.117 114.548,40.117 Z"/>
<path fill-rule="evenodd"  fill="rgb(173, 0, 0)"
 d="M135.829,141.113 C135.933,141.419 136.095,141.783 136.391,141.873 C136.610,141.940 136.799,141.817 136.957,141.698 C137.914,140.976 140.678,139.481 138.183,138.448 C135.923,137.513 135.123,139.047 135.829,141.113 Z"/>
<path fill-rule="evenodd"  fill="rgb(173, 0, 0)"
 d="M143.028,134.842 C142.835,134.714 142.640,134.612 142.447,134.536 C140.722,133.856 139.106,135.175 139.735,137.042 C140.699,139.904 142.833,136.855 143.298,136.140 C143.518,135.801 143.476,135.140 143.028,134.842 Z"/>
<path fill-rule="evenodd"  fill="rgb(255, 255, 255)"
 d="M20.006,143.384 C16.947,141.716 11.519,146.413 12.637,151.726 C13.193,154.367 14.444,156.592 15.418,157.426 C12.751,152.871 13.749,148.111 18.337,146.443 C20.619,145.613 21.836,144.382 20.006,143.384 Z"/>
<path fill-rule="evenodd"  fill="rgb(255, 255, 255)"
 d="M156.628,59.674 C153.754,59.303 151.113,62.640 151.113,65.976 C151.113,69.313 152.920,70.286 152.920,70.286 C152.920,70.286 150.545,64.838 156.628,62.918 C158.389,62.361 159.501,60.044 156.628,59.674 Z"/>
<path fill-rule="evenodd"  fill="rgb(173, 0, 0)"
 d="M65.096,132.367 C57.141,134.649 55.249,144.442 61.278,151.225 C67.307,158.007 76.949,154.126 78.951,145.601 C80.953,137.076 72.785,130.161 65.096,132.367 Z"/>
<path fill-rule="evenodd"  fill="rgb(173, 0, 0)"
 d="M33.352,15.753 C24.969,18.106 22.734,27.363 28.866,33.583 C34.998,39.803 45.189,35.903 47.506,27.836 C49.823,19.768 41.455,13.480 33.352,15.753 Z"/>
</svg>
