<svg
 xmlns="http://www.w3.org/2000/svg"
 xmlns:xlink="http://www.w3.org/1999/xlink"
 width="178px" height="172px">
<path fill-rule="evenodd"  fill="rgb(255, 90, 0)"
 d="M84.981,13.190 C79.241,10.403 71.223,13.190 66.426,16.796 C65.701,17.341 64.768,17.959 63.967,17.533 C63.578,17.326 63.346,16.920 63.096,16.557 C61.519,14.268 58.594,13.200 55.813,13.211 C53.033,13.221 50.346,14.156 47.755,15.164 C44.003,16.623 40.403,19.332 37.873,22.449 C36.613,24.001 35.474,25.828 35.173,27.840 C34.825,30.161 36.080,31.530 36.526,33.648 C36.921,35.525 36.461,38.052 36.184,39.930 C35.083,47.396 30.888,53.188 27.206,59.545 C21.960,68.603 22.902,82.434 29.708,90.651 C32.457,93.969 36.332,96.115 40.099,98.207 C41.192,98.814 42.372,99.526 42.766,100.713 C42.938,101.232 42.937,101.790 42.935,102.337 C42.918,106.734 42.282,111.090 42.282,115.460 C41.783,124.320 43.540,133.432 48.385,140.923 C51.907,146.369 57.570,145.429 63.197,145.662 C68.705,145.890 72.557,144.727 74.978,139.571 C75.405,138.661 75.575,135.491 76.425,135.142 C77.349,134.763 79.736,136.469 80.482,136.896 C83.456,138.601 86.974,139.254 90.393,139.005 C93.363,138.788 95.807,137.683 98.582,136.794 C101.404,135.890 101.740,138.275 102.193,140.531 C102.950,144.297 105.659,147.240 109.295,148.261 C115.326,149.955 126.742,152.853 130.265,142.022 C131.467,138.326 133.707,135.296 135.262,131.811 C136.913,128.110 137.877,124.102 138.077,120.054 C138.250,116.586 137.902,113.113 137.862,109.645 C137.850,108.545 137.376,107.179 137.533,106.120 C137.732,104.772 139.117,103.643 140.097,102.829 C143.544,99.967 147.319,97.504 150.621,94.476 C152.684,92.583 154.567,90.441 155.945,87.993 C157.547,85.149 157.629,83.023 157.645,79.872 C157.683,72.625 155.962,65.174 151.542,58.757 C147.123,52.340 143.684,47.617 142.589,44.690 C141.402,41.516 139.837,38.885 140.034,35.338 C140.213,32.125 141.520,28.858 140.588,25.778 C139.879,23.440 138.002,21.673 136.200,20.022 C129.687,14.058 120.765,11.124 113.554,17.555 C112.829,9.590 99.185,9.779 94.381,12.557 C92.182,13.828 90.459,16.145 90.466,18.685 C89.460,16.217 87.403,14.366 84.981,13.190 Z"/>
<path fill-rule="evenodd"  fill="rgb(173, 0, 0)"
 d="M53.257,138.143 C57.251,130.197 70.475,133.058 70.957,136.236 C71.439,139.415 68.637,163.888 75.306,171.517 C75.306,171.517 52.848,172.788 53.257,138.143 Z"/>
<path fill-rule="evenodd"  fill="rgb(173, 0, 0)"
 d="M124.832,138.143 C121.026,130.197 107.735,133.058 107.177,136.236 C106.620,139.415 108.844,163.888 101.995,171.516 C101.995,171.516 124.423,172.788 124.832,138.143 Z"/>
<path fill-rule="evenodd"  fill="rgb(173, 0, 0)"
 d="M99.503,87.270 C100.838,95.537 105.508,99.507 109.956,100.085 C116.125,100.517 120.632,97.032 122.411,90.075 C124.190,83.119 99.503,87.270 99.503,87.270 Z"/>
<path fill-rule="evenodd"  fill="rgb(173, 0, 0)"
 d="M59.100,87.093 C58.505,95.713 64.262,99.507 68.710,100.085 C73.158,100.663 80.072,96.211 80.392,89.407 C80.729,82.234 59.100,87.093 59.100,87.093 Z"/>
<path fill-rule="evenodd"  fill="rgb(173, 0, 0)"
 d="M31.434,75.416 C30.914,84.383 36.455,88.330 40.722,88.931 C44.989,89.532 51.591,84.901 51.858,77.823 C52.139,70.362 31.434,75.416 31.434,75.416 Z"/>
<path fill-rule="evenodd"  fill="rgb(0, 0, 0)"
 d="M108.957,75.877 C97.970,76.791 94.526,94.635 109.779,97.603 C125.033,100.571 129.082,74.201 108.957,75.877 Z"/>
<path fill-rule="evenodd"  fill="rgb(173, 0, 0)"
 d="M107.519,115.601 C108.856,123.872 112.528,127.737 117.988,128.447 C122.443,129.037 129.032,124.978 130.291,118.092 C131.583,111.034 107.519,115.601 107.519,115.601 Z"/>
<path fill-rule="evenodd"  fill="rgb(173, 0, 0)"
 d="M48.422,111.832 C48.422,121.223 52.200,124.724 57.415,125.315 C61.668,125.809 67.624,122.060 69.326,115.070 C71.027,108.080 48.422,111.832 48.422,111.832 Z"/>
<path fill-rule="evenodd"  fill="rgb(0, 0, 0)"
 d="M116.865,103.472 C104.592,105.956 103.569,125.000 119.728,125.981 C136.899,127.024 131.484,100.513 116.865,103.472 Z"/>
<path fill-rule="evenodd"  fill="rgb(173, 0, 0)"
 d="M129.094,80.542 C130.250,88.825 134.295,92.852 138.148,93.483 C142.000,94.115 147.394,90.559 148.935,83.624 C150.476,76.689 129.094,80.542 129.094,80.542 Z"/>
<path fill-rule="evenodd"  fill="rgb(0, 0, 0)"
 d="M138.805,68.383 C126.611,68.217 125.215,89.597 139.362,90.010 C153.509,90.423 153.001,68.576 138.805,68.383 Z"/>
<path fill-rule="evenodd"  fill="rgb(0, 0, 0)"
 d="M56.784,100.580 C46.728,101.395 44.133,119.924 57.997,122.915 C71.862,125.905 75.761,99.043 56.784,100.580 Z"/>
<path fill-rule="evenodd"  fill="rgb(0, 0, 0)"
 d="M67.363,75.291 C57.008,76.304 53.853,98.424 71.568,97.128 C85.778,96.088 82.093,73.849 67.363,75.291 Z"/>
<path fill-rule="evenodd"  fill="rgb(0, 0, 0)"
 d="M42.001,65.667 C34.299,64.692 24.376,78.145 37.894,85.251 C51.412,92.356 59.799,67.920 42.001,65.667 Z"/>
<path fill-rule="evenodd"  fill="rgb(173, 0, 0)"
 d="M123.538,19.753 C120.706,24.305 128.470,32.401 134.855,29.976 C138.359,28.645 138.688,24.409 141.488,20.585 C144.068,17.064 150.581,20.341 152.174,26.495 C155.703,40.132 182.155,40.462 177.176,18.327 C172.830,-0.989 149.858,-2.599 139.518,3.936 C129.179,10.471 126.655,14.742 123.538,19.753 Z"/>
<path fill-rule="evenodd"  fill="rgb(0, 0, 0)"
 d="M166.167,17.365 C156.940,16.594 154.587,29.476 164.511,31.520 C174.435,33.563 178.530,18.398 166.167,17.365 Z"/>
<path fill-rule="evenodd"  fill="rgb(173, 0, 0)"
 d="M55.019,19.753 C57.851,24.305 50.087,32.401 43.702,29.976 C40.198,28.645 39.870,24.409 37.069,20.585 C34.490,17.064 27.976,20.341 26.383,26.495 C22.854,40.132 -3.598,40.462 1.381,18.327 C5.727,-0.989 28.700,-2.599 39.039,3.936 C49.378,10.471 51.903,14.742 55.019,19.753 Z"/>
<path fill-rule="evenodd"  fill="rgb(0, 0, 0)"
 d="M12.925,17.363 C21.542,16.643 23.739,28.672 14.472,30.580 C5.205,32.489 1.381,18.327 12.925,17.363 Z"/>
<path fill-rule="evenodd"  fill="rgb(255, 16, 0)"
 d="M87.134,33.999 C86.560,34.507 85.661,34.626 84.853,34.682 C79.166,35.071 73.919,36.084 68.268,37.158 C65.133,37.754 62.053,38.634 59.089,39.781 C56.644,40.728 53.539,43.265 51.074,43.719 C62.477,41.616 74.198,39.508 85.553,41.384 C87.835,41.761 88.506,42.512 88.350,44.514 C88.285,45.353 88.580,46.169 88.693,47.000 C88.873,48.324 88.578,49.708 87.864,50.884 C87.691,51.169 87.482,51.453 87.173,51.610 C86.919,51.740 86.624,51.769 86.338,51.797 C83.319,52.083 80.036,51.938 77.107,52.409 C75.530,52.663 73.920,53.319 72.508,54.016 C71.481,54.524 69.933,56.113 68.902,56.329 C73.019,55.467 77.217,54.975 81.419,54.863 C82.438,54.836 83.519,54.846 84.376,55.342 C85.316,55.887 85.794,56.905 86.134,57.889 C87.072,60.608 87.351,63.492 87.624,66.349 C88.137,71.726 88.651,77.103 89.165,82.479 C89.582,76.640 89.999,70.801 90.416,64.962 C90.557,62.992 90.724,60.939 91.806,59.222 C93.635,56.319 97.542,55.184 101.116,54.881 C104.054,54.632 107.273,54.863 109.437,56.676 C108.670,53.707 105.546,51.782 102.378,50.991 C101.134,50.680 99.624,50.288 98.317,50.411 C97.548,50.483 96.888,50.896 96.136,50.987 C92.990,51.369 92.863,48.383 92.722,46.222 C92.657,45.217 92.591,44.212 92.526,43.207 C92.396,41.207 93.556,39.933 95.653,39.420 C104.854,37.170 115.040,39.129 122.364,44.556 C120.721,39.740 115.909,36.374 110.732,34.844 C107.554,33.904 103.289,32.997 99.905,33.391 C97.787,33.637 95.506,34.973 93.779,32.961 C93.427,32.551 93.189,32.068 92.955,31.590 C91.797,29.230 90.638,26.871 89.480,24.511 C89.144,27.294 88.578,30.059 87.788,32.771 C87.685,33.124 87.573,33.486 87.339,33.783 C87.276,33.862 87.208,33.934 87.134,33.999 Z"/>
<path fill-rule="evenodd"  fill="rgb(255, 255, 255)"
 d="M39.153,73.929 C40.689,71.968 38.714,69.009 36.372,70.335 C32.905,72.296 36.927,76.771 39.153,73.929 Z"/>
<path fill-rule="evenodd"  fill="rgb(255, 255, 255)"
 d="M64.429,79.749 C65.206,79.084 66.337,78.808 67.321,79.107 C68.894,79.587 68.444,82.427 67.294,83.161 C65.768,84.136 63.180,83.328 63.527,81.302 C63.634,80.673 63.970,80.143 64.429,79.749 Z"/>
<path fill-rule="evenodd"  fill="rgb(255, 255, 255)"
 d="M57.298,105.910 C57.132,105.710 56.930,105.564 56.726,105.439 C55.918,104.944 54.915,104.991 54.125,105.448 C53.291,105.931 52.693,106.871 52.811,108.114 C53.100,111.139 56.403,110.196 57.278,108.819 C57.774,108.038 57.978,106.730 57.298,105.910 Z"/>
<path fill-rule="evenodd"  fill="rgb(255, 255, 255)"
 d="M105.809,81.456 C107.381,80.747 110.417,81.327 110.296,83.448 C110.239,84.431 109.409,85.256 108.541,85.646 C107.593,86.073 106.495,86.118 105.666,85.603 C104.445,84.844 104.021,82.515 105.569,81.581 C105.644,81.536 105.724,81.494 105.809,81.456 Z"/>
<path fill-rule="evenodd"  fill="rgb(255, 255, 255)"
 d="M133.778,74.663 C133.762,75.378 134.163,76.108 135.172,76.611 C135.980,77.014 137.037,76.863 137.815,76.418 C138.353,76.110 138.801,75.658 138.982,75.118 C139.277,74.241 138.784,73.238 137.911,72.734 C135.888,71.565 133.813,73.079 133.778,74.663 Z"/>
<path fill-rule="evenodd"  fill="rgb(255, 255, 255)"
 d="M117.524,108.592 C118.393,109.367 118.635,110.448 117.855,111.636 C117.040,112.875 115.260,113.287 113.901,112.695 C113.267,112.419 112.686,111.904 112.554,111.225 C112.460,110.740 112.607,110.236 112.837,109.800 C113.595,108.362 115.198,107.246 116.771,108.078 C117.056,108.229 117.309,108.401 117.524,108.592 Z"/>
<path fill-rule="evenodd"  fill="rgb(255, 255, 255)"
 d="M56.345,151.783 C56.548,152.580 56.781,153.365 57.046,154.138 C57.228,154.667 57.409,155.197 57.591,155.726 C57.737,156.153 57.884,156.515 58.132,156.790 C58.217,154.196 57.788,151.1000 57.627,149.406 C57.460,146.700 57.549,143.839 57.669,141.199 C57.713,140.215 58.041,138.579 57.421,138.018 C57.051,137.684 56.240,138.097 55.924,138.505 C55.100,139.566 55.241,141.819 55.270,143.298 C55.328,146.303 55.667,149.115 56.345,151.783 Z"/>
<path fill-rule="evenodd"  fill="rgb(255, 255, 255)"
 d="M107.434,167.966 C109.125,166.726 110.181,165.245 110.910,163.798 C112.870,159.907 113.194,154.613 111.599,149.401 C111.025,147.525 110.124,147.343 110.070,148.687 C110.028,149.739 110.204,150.959 110.206,152.053 C110.209,154.058 110.135,156.095 109.935,158.071 C109.776,159.649 109.442,161.206 109.020,162.791 C108.756,163.786 108.458,167.216 107.434,167.966 Z"/>
<path fill-rule="evenodd"  fill="rgb(173, 0, 0)"
 d="M79.594,121.340 C77.729,121.119 75.916,121.327 75.763,123.193 C75.492,126.523 78.989,128.384 81.673,129.270 C86.689,130.926 94.248,131.379 99.008,128.597 C100.224,127.887 101.386,126.765 101.955,125.461 C102.449,124.331 102.626,122.464 101.098,122.230 C99.156,121.932 97.176,122.100 95.216,122.243 C91.195,122.537 87.126,122.727 83.154,122.035 C82.368,121.899 80.967,121.503 79.594,121.340 Z"/>
<path fill-rule="evenodd"  fill="rgb(255, 255, 255)"
 d="M78.032,121.290 C80.505,124.259 83.058,126.011 89.028,126.011 C94.998,126.011 98.852,124.048 100.337,122.139 C100.337,122.139 95.861,122.508 89.028,122.508 C82.195,122.508 78.032,121.290 78.032,121.290 Z"/>
<path fill-rule="evenodd"  fill="rgb(255, 255, 255)"
 d="M11.034,21.313 C11.690,22.289 11.601,23.943 9.918,24.295 C8.251,24.643 7.558,22.030 8.708,21.054 C9.662,20.243 10.550,20.594 11.034,21.313 Z"/>
<path fill-rule="evenodd"  fill="rgb(255, 255, 255)"
 d="M163.079,20.118 C163.552,19.977 164.062,20.001 164.482,20.266 C165.879,21.143 165.100,23.485 163.510,23.586 C162.639,23.642 161.787,22.964 161.630,22.106 C161.464,21.193 162.209,20.376 163.079,20.118 Z"/>
<path fill-rule="evenodd"  fill="rgb(255, 16, 0)"
 d="M127.022,20.085 C126.654,20.726 126.307,21.418 126.305,22.157 C126.303,22.897 126.753,23.688 127.477,23.837 C128.249,23.996 128.965,23.409 129.487,22.818 C131.021,21.080 131.801,18.970 133.155,17.132 C135.261,14.273 137.755,11.694 140.544,9.496 C142.872,7.661 145.889,4.959 148.761,4.144 C146.940,4.421 145.140,4.847 143.387,5.415 C142.591,5.673 141.797,5.965 141.096,6.421 C135.668,9.960 130.287,14.398 127.022,20.085 Z"/>
<path fill-rule="evenodd"  fill="rgb(255, 16, 0)"
 d="M6.582,15.855 C11.504,8.964 18.414,6.236 26.186,3.801 C20.352,3.181 13.583,4.625 9.516,9.108 C8.673,10.038 7.948,11.092 7.436,12.241 C7.025,13.164 7.081,15.155 6.582,15.855 Z"/>
<path fill-rule="evenodd"  fill="rgb(173, 0, 0)"
 d="M86.086,112.452 C86.513,112.629 87.053,112.790 87.396,112.481 C87.650,112.251 87.669,111.865 87.666,111.523 C87.647,109.462 88.251,104.121 85.048,106.447 C82.147,108.553 83.201,111.253 86.086,112.452 Z"/>
<path fill-rule="evenodd"  fill="rgb(173, 0, 0)"
 d="M93.882,112.438 C93.609,112.575 93.311,112.683 92.991,112.755 C92.250,112.922 91.614,112.159 91.544,111.479 C91.396,110.045 90.930,103.748 94.515,106.121 C96.854,107.669 96.320,111.219 93.882,112.438 Z"/>
<path fill-rule="evenodd"  fill="rgb(212, 212, 212)"
 d="M77.913,121.223 C81.899,121.573 85.168,122.367 89.484,122.367 C93.800,122.367 96.708,122.151 100.464,122.078 C100.464,122.078 95.846,123.595 89.701,123.595 C83.555,123.595 77.913,121.223 77.913,121.223 Z"/>
<path fill-rule="evenodd"  fill="rgb(173, 0, 0)"
 d="M139.559,92.361 C132.828,92.361 128.894,86.643 128.894,79.275 C128.894,71.907 133.878,68.182 139.559,68.182 C145.241,68.182 149.913,71.907 149.913,79.275 C149.913,86.643 146.291,92.361 139.559,92.361 ZM129.194,79.275 C129.194,79.275 131.628,83.373 139.948,83.373 C145.765,83.373 149.613,79.275 149.613,79.275 C142.734,73.543 133.878,74.463 129.194,79.275 Z"/>
<path fill-rule="evenodd"  fill="rgb(173, 0, 0)"
 d="M165.936,32.024 C160.823,31.988 157.900,28.418 157.985,23.845 C158.070,19.272 161.898,16.988 166.214,17.018 C170.530,17.049 174.035,19.386 173.951,23.959 C173.866,28.532 171.049,32.061 165.936,32.024 ZM158.213,23.847 C158.213,23.847 160.014,26.403 166.335,26.448 C170.753,26.480 173.723,23.957 173.723,23.957 C168.564,20.363 161.826,20.886 158.213,23.847 Z"/>
<path fill-rule="evenodd"  fill="rgb(173, 0, 0)"
 d="M13.093,30.930 C8.290,30.896 5.544,27.586 5.624,23.348 C5.703,19.109 9.300,16.991 13.354,17.020 C17.408,17.048 20.620,19.214 20.621,23.453 C20.623,27.778 17.896,30.963 13.093,30.930 ZM5.838,23.349 C5.838,23.349 7.185,26.049 13.123,26.091 C17.273,26.120 20.407,23.452 20.407,23.452 C15.561,20.120 9.232,20.605 5.838,23.349 Z"/>
<path fill-rule="evenodd"  fill="rgb(173, 0, 0)"
 d="M48.576,111.327 C48.576,111.327 50.680,115.402 59.402,115.307 C68.124,115.212 69.743,111.096 69.743,111.096 C69.743,118.465 65.775,123.551 59.775,123.373 C53.775,123.196 48.229,118.700 48.229,111.332 C48.229,103.963 52.681,100.368 58.637,100.303 C64.593,100.238 69.743,103.728 69.743,111.096 C62.532,105.443 53.487,106.461 48.576,111.327 Z"/>
<path fill-rule="evenodd"  fill="rgb(173, 0, 0)"
 d="M109.748,97.872 C94.103,94.891 97.652,76.626 108.905,75.605 C129.401,73.746 125.240,100.824 109.748,97.872 ZM99.504,87.270 C99.504,87.270 102.930,91.060 111.003,90.861 C119.401,90.653 122.655,86.818 122.655,86.818 C115.250,81.200 104.139,83.229 99.504,87.270 Z"/>
<path fill-rule="evenodd"  fill="rgb(173, 0, 0)"
 d="M40.890,86.542 C26.639,83.949 29.456,66.710 39.740,65.585 C58.046,63.583 54.766,89.066 40.890,86.542 ZM31.710,76.079 C31.710,76.079 33.698,79.923 40.918,79.936 C48.594,79.949 51.861,76.524 51.861,76.524 C45.211,71.316 35.830,72.218 31.710,76.079 Z"/>
<path fill-rule="evenodd"  fill="rgb(173, 0, 0)"
 d="M118.157,126.612 C101.940,123.294 106.065,104.152 116.941,103.043 C136.752,101.022 134.374,129.930 118.157,126.612 ZM107.878,115.085 C107.878,115.085 111.804,119.394 119.609,119.146 C127.727,118.889 130.259,114.497 130.259,114.497 C123.087,108.761 113.305,109.524 107.878,115.085 Z"/>
<path fill-rule="evenodd"  fill="rgb(173, 0, 0)"
 d="M69.041,97.723 C53.561,95.696 57.379,76.277 67.374,75.217 C85.580,73.288 84.521,99.750 69.041,97.723 ZM59.303,86.716 C59.303,86.716 63.020,90.033 70.205,89.796 C77.679,89.550 79.910,86.155 79.910,86.155 C73.065,80.490 64.085,81.247 59.303,86.716 Z"/>
<path fill-rule="evenodd"  fill="rgb(173, 0, 0)"
 d="M122.503,86.475 C122.503,91.486 117.390,95.547 111.083,95.547 C104.776,95.547 99.664,91.486 99.664,86.475 C99.664,81.465 104.776,77.403 111.083,77.403 C117.390,77.403 122.503,81.465 122.503,86.475 Z"/>
<path fill-rule="evenodd"  fill="rgb(173, 0, 0)"
 d="M130.688,114.448 C130.688,119.458 125.494,123.667 119.087,123.849 C112.680,124.031 107.486,120.117 107.486,115.107 C107.486,110.096 112.680,105.887 119.087,105.705 C125.494,105.523 130.688,109.437 130.688,114.448 Z"/>
<path fill-rule="evenodd"  fill="rgb(173, 0, 0)"
 d="M149.789,79.269 C149.789,84.280 145.139,88.489 139.403,88.671 C133.667,88.853 129.017,84.939 129.017,79.928 C129.017,74.918 133.667,70.709 139.403,70.527 C145.139,70.345 149.789,74.259 149.789,79.269 Z"/>
<path fill-rule="evenodd"  fill="rgb(173, 0, 0)"
 d="M174.358,24.313 C174.358,28.761 170.603,32.490 165.973,32.642 C161.342,32.793 157.588,29.310 157.588,24.862 C157.588,20.414 161.342,16.685 165.973,16.533 C170.603,16.382 174.358,19.865 174.358,24.313 Z"/>
<path fill-rule="evenodd"  fill="rgb(173, 0, 0)"
 d="M21.251,23.703 C21.251,27.871 17.702,31.288 13.325,31.336 C8.948,31.383 5.400,28.042 5.400,23.874 C5.400,19.706 8.948,16.289 13.325,16.242 C17.702,16.194 21.251,19.535 21.251,23.703 Z"/>
<path fill-rule="evenodd"  fill="rgb(173, 0, 0)"
 d="M80.158,86.146 C80.158,91.156 75.429,95.365 69.594,95.547 C63.760,95.729 59.031,91.815 59.031,86.805 C59.031,81.794 63.760,77.585 69.594,77.403 C75.429,77.221 80.158,81.135 80.158,86.146 Z"/>
<path fill-rule="evenodd"  fill="rgb(173, 0, 0)"
 d="M52.134,75.766 C52.134,80.776 47.493,84.986 41.767,85.168 C36.042,85.349 31.400,81.435 31.400,76.425 C31.400,71.415 36.042,67.205 41.767,67.024 C47.493,66.842 52.134,70.756 52.134,75.766 Z"/>
<path fill-rule="evenodd"  fill="rgb(173, 0, 0)"
 d="M69.776,110.845 C69.776,115.855 65.025,120.088 59.164,120.300 C53.304,120.511 48.553,116.621 48.553,111.611 C48.553,106.600 53.304,102.367 59.164,102.156 C65.025,101.944 69.776,105.835 69.776,110.845 Z"/>
</svg>
