<svg
 xmlns="http://www.w3.org/2000/svg"
 xmlns:xlink="http://www.w3.org/1999/xlink"
 width="140px" height="174px">
<path fill-rule="evenodd"  fill="rgb(255, 181, 0)"
 d="M116.836,37.734 C133.083,10.071 93.345,-7.492 85.003,22.366 C85.003,22.366 89.271,0.099 67.756,0.538 C46.241,0.977 50.851,24.907 50.851,24.907 C46.241,9.100 29.372,2.040 19.676,11.296 C10.016,20.517 12.870,31.933 24.726,39.836 C-4.693,32.152 -7.986,71.011 18.578,71.451 C18.578,71.451 12.212,84.404 18.798,93.185 C25.384,101.967 35.044,103.723 46.022,98.893 C53.040,95.804 57.726,89.028 58.945,81.101 C60.172,87.167 59.555,92.077 60.806,99.606 C61.893,108.846 66.300,115.107 70.633,118.806 C76.987,124.230 91.015,130.971 100.761,133.595 C103.844,134.425 107.020,135.228 109.653,137.191 C112.287,139.154 114.293,142.592 113.797,146.069 C113.266,149.796 109.948,152.478 106.569,152.896 C103.189,153.314 99.828,151.896 96.884,150.008 C90.089,145.651 85.098,136.950 79.577,133.644 C73.707,130.130 67.076,129.477 59.453,134.051 C53.251,137.772 49.587,145.727 46.971,149.852 C43.959,154.603 35.424,159.306 33.639,152.344 C31.606,144.417 50.441,141.974 46.731,125.880 C44.690,117.023 35.579,111.155 27.510,112.688 C19.441,114.221 13.187,119.688 10.874,127.953 C7.625,139.558 5.970,150.045 16.768,162.711 C23.091,170.127 34.414,173.309 43.731,170.647 C60.806,165.769 59.539,149.754 65.755,147.466 C78.422,142.803 77.949,156.890 91.630,166.550 C99.659,172.219 108.826,175.467 117.087,171.924 C125.348,168.381 131.888,160.019 133.479,150.352 C135.070,140.685 131.458,130.080 124.259,124.354 C113.014,115.408 96.725,118.670 85.776,109.761 C82.469,107.070 77.754,103.463 76.934,99.089 C75.891,93.525 73.885,88.113 75.564,81.476 C78.862,86.275 80.351,90.806 84.223,95.219 C88.960,100.616 95.706,102.145 102.576,100.521 C117.324,97.036 122.542,77.908 111.567,69.129 C143.621,85.375 150.866,32.245 116.836,37.734 Z"/>
<path fill-rule="evenodd"  fill="rgb(0, 0, 0)"
 d="M46.231,87.063 C50.569,77.423 40.397,68.078 30.795,72.654 C21.278,77.191 24.105,86.941 26.567,89.737 C29.876,93.494 41.894,96.702 46.231,87.063 Z"/>
<path fill-rule="evenodd"  fill="rgb(255, 255, 255)"
 d="M31.281,76.854 C27.427,77.462 26.636,83.357 31.652,83.357 C36.669,83.357 34.811,76.296 31.281,76.854 Z"/>
<path fill-rule="evenodd"  fill="rgb(0, 0, 0)"
 d="M107.512,87.343 C111.535,78.404 102.102,69.738 93.198,73.981 C84.371,78.189 86.993,87.230 89.276,89.823 C92.345,93.307 103.489,96.282 107.512,87.343 Z"/>
<path fill-rule="evenodd"  fill="rgb(255, 255, 255)"
 d="M93.648,77.725 C90.073,78.290 89.340,83.756 93.992,83.756 C98.645,83.756 96.922,77.208 93.648,77.725 Z"/>
<path fill-rule="evenodd"  fill="rgb(0, 0, 0)"
 d="M131.130,58.811 C135.185,49.800 125.676,41.064 116.701,45.341 C107.804,49.583 110.447,58.697 112.749,61.311 C115.842,64.822 127.075,67.821 131.130,58.811 Z"/>
<path fill-rule="evenodd"  fill="rgb(255, 255, 255)"
 d="M117.155,49.116 C113.552,49.685 112.812,55.195 117.502,55.195 C122.192,55.195 120.455,48.595 117.155,49.116 Z"/>
<path fill-rule="evenodd"  fill="rgb(0, 0, 0)"
 d="M112.626,28.284 C116.737,19.149 107.097,10.292 97.997,14.629 C88.977,18.929 91.656,28.169 93.990,30.819 C97.126,34.379 108.515,37.420 112.626,28.284 Z"/>
<path fill-rule="evenodd"  fill="rgb(255, 255, 255)"
 d="M98.457,18.455 C94.804,19.032 94.055,24.619 98.809,24.619 C103.564,24.619 101.803,17.927 98.457,18.455 Z"/>
<path fill-rule="evenodd"  fill="rgb(0, 0, 0)"
 d="M77.752,19.918 C81.515,11.557 72.692,3.450 64.363,7.420 C56.107,11.356 58.559,19.813 60.695,22.238 C63.565,25.497 73.990,28.280 77.752,19.918 Z"/>
<path fill-rule="evenodd"  fill="rgb(255, 255, 255)"
 d="M64.784,11.084 C61.441,11.612 60.754,16.726 65.106,16.726 C69.458,16.726 67.846,10.601 64.784,11.084 Z"/>
<path fill-rule="evenodd"  fill="rgb(0, 0, 0)"
 d="M30.637,139.576 C40.631,139.333 44.441,126.836 36.612,120.519 C28.849,114.258 21.709,120.664 20.313,123.900 C17.335,130.806 20.642,139.820 30.637,139.576 Z"/>
<path fill-rule="evenodd"  fill="rgb(255, 255, 255)"
 d="M30.012,123.753 C27.917,120.715 22.566,122.451 24.618,126.730 C26.670,131.008 31.932,126.536 30.012,123.753 Z"/>
<path fill-rule="evenodd"  fill="rgb(0, 0, 0)"
 d="M39.999,27.156 C43.816,18.672 34.864,10.448 26.414,14.475 C18.037,18.468 20.525,27.049 22.692,29.510 C25.604,32.816 36.181,35.640 39.999,27.156 Z"/>
<path fill-rule="evenodd"  fill="rgb(255, 255, 255)"
 d="M26.841,18.191 C23.449,18.726 22.752,23.914 27.168,23.914 C31.583,23.914 29.948,17.700 26.841,18.191 Z"/>
<path fill-rule="evenodd"  fill="rgb(0, 0, 0)"
 d="M24.460,58.134 C28.024,50.218 19.671,42.541 11.784,46.298 C3.967,50.023 6.287,58.031 8.310,60.328 C11.027,63.414 20.896,66.050 24.460,58.134 Z"/>
<path fill-rule="evenodd"  fill="rgb(255, 255, 255)"
 d="M12.183,49.776 C9.017,50.276 8.366,55.117 12.487,55.118 C16.607,55.118 15.082,49.319 12.183,49.776 Z"/>
<path fill-rule="evenodd"  fill="rgb(173, 0, 0)"
 d="M68.702,32.622 C44.920,32.622 36.973,42.106 36.647,52.268 C36.321,62.429 45.753,72.252 66.486,72.252 C87.218,72.252 99.126,64.122 99.149,53.284 C99.171,42.445 85.776,32.622 68.702,32.622 Z"/>
<path fill-rule="evenodd"  fill="rgb(115, 0, 0)"
 d="M42.074,45.123 C42.074,45.123 41.770,40.753 46.953,38.110 C52.136,35.468 54.982,37.297 54.982,37.297 C54.982,37.297 56.608,34.757 61.080,34.248 C65.551,33.740 68.804,35.976 68.804,35.976 C68.804,35.976 70.938,33.435 76.020,34.553 C81.101,35.671 81.914,38.009 81.914,38.009 C81.914,38.009 85.166,36.891 88.825,39.635 C92.484,42.379 91.671,44.818 91.671,44.818 C91.671,44.818 95.228,44.310 98.592,49.481 C95.924,40.252 83.748,32.622 68.702,32.622 C44.920,32.622 36.973,42.106 36.647,52.268 C36.790,48.375 39.635,44.920 42.074,45.123 Z"/>
<path fill-rule="evenodd"  fill="rgb(74, 0, 0)"
 d="M45.316,47.485 C50.096,47.270 54.673,46.947 55.795,39.088 C59.910,42.964 65.578,44.686 68.597,39.304 C73.198,44.902 78.395,43.825 80.358,41.457 C82.437,45.548 83.624,48.024 89.533,46.947 C87.854,50.930 88.831,53.837 91.040,55.883 C84.129,55.883 84.585,59.758 84.260,61.266 C77.584,58.897 75.296,62.773 74.560,64.603 C69.229,60.512 65.142,62.127 63.786,64.711 C61.084,61.589 58.058,59.866 53.447,62.665 C53.447,62.665 52.921,56.421 45.899,57.067 C45.899,57.067 50.144,51.253 45.316,47.485 Z"/>
<path fill-rule="evenodd"  fill="rgb(0, 0, 0)"
 d="M51.044,52.908 C51.071,55.890 53.649,60.425 68.177,60.434 C82.704,60.442 85.655,55.194 85.630,52.450 C85.605,49.706 83.028,45.171 76.218,44.452 C69.409,43.732 70.134,47.431 71.191,49.579 C72.249,51.727 72.165,55.186 68.706,55.184 C65.247,55.182 64.987,51.961 66.460,49.099 C67.667,46.754 65.378,44.207 61.688,44.205 C57.999,44.202 50.991,47.062 51.044,52.908 Z"/>
<path fill-rule="evenodd"  fill="rgb(255, 255, 255)"
 d="M45.087,42.305 C48.473,46.482 53.338,48.472 54.270,48.883 C55.204,49.296 53.144,38.665 51.855,38.522 C50.577,38.380 46.542,39.957 45.087,42.305 Z"/>
<path fill-rule="evenodd"  fill="rgb(255, 255, 255)"
 d="M57.006,37.929 C57.750,40.807 62.396,47.219 62.863,46.858 C63.329,46.498 66.662,40.665 66.498,36.661 C65.439,35.458 57.955,36.883 57.006,37.929 Z"/>
<path fill-rule="evenodd"  fill="rgb(255, 255, 255)"
 d="M70.994,36.478 C69.892,41.263 73.563,47.424 73.563,47.424 C73.563,47.424 79.290,40.823 79.623,37.964 C77.461,36.537 73.442,35.758 70.994,36.478 Z"/>
<path fill-rule="evenodd"  fill="rgb(255, 255, 255)"
 d="M59.962,57.092 C59.962,57.092 54.969,60.866 53.156,65.588 C57.588,68.469 61.567,67.715 61.567,67.715 C62.877,63.594 59.962,57.092 59.962,57.092 Z"/>
<path fill-rule="evenodd"  fill="rgb(255, 255, 255)"
 d="M44.188,60.169 C45.301,62.524 48.836,64.536 50.320,64.762 C52.746,59.656 53.660,55.388 53.660,55.388 C53.660,55.388 46.884,57.201 44.188,60.169 Z"/>
<path fill-rule="evenodd"  fill="rgb(255, 255, 255)"
 d="M41.412,48.205 C40.269,50.546 40.908,54.562 41.660,55.861 C46.842,54.789 49.697,51.932 49.697,51.932 C49.697,51.932 45.415,48.455 41.412,48.205 Z"/>
<path fill-rule="evenodd"  fill="rgb(255, 255, 255)"
 d="M90.248,43.700 C88.548,46.352 80.911,48.261 80.911,48.261 C80.911,48.261 82.288,39.469 84.263,39.244 C87.402,39.567 90.248,43.700 90.248,43.700 Z"/>
<path fill-rule="evenodd"  fill="rgb(255, 255, 255)"
 d="M88.547,64.289 C85.975,62.511 83.134,54.372 83.134,54.372 C83.134,54.372 91.235,56.756 93.367,58.691 C92.901,61.770 88.547,64.289 88.547,64.289 Z"/>
<path fill-rule="evenodd"  fill="rgb(255, 255, 255)"
 d="M95.001,54.273 C92.177,54.843 87.402,51.221 87.402,51.221 C87.402,51.221 91.476,47.940 94.134,47.748 C95.968,49.929 95.001,54.273 95.001,54.273 Z"/>
<path fill-rule="evenodd"  fill="rgb(255, 255, 255)"
 d="M85.403,65.348 C84.712,62.446 77.645,56.709 77.645,56.709 C77.645,56.709 75.378,66.293 77.504,67.301 C81.049,68.192 85.403,65.348 85.403,65.348 Z"/>
<path fill-rule="evenodd"  fill="rgb(255, 255, 255)"
 d="M73.402,67.499 C73.278,62.911 68.865,57.878 68.865,57.878 C68.865,57.878 65.346,62.210 64.448,68.132 C68.793,69.701 73.402,67.499 73.402,67.499 Z"/>
<path fill-rule="evenodd"  fill="rgb(115, 0, 0)"
 d="M67.787,49.290 C68.064,47.767 65.755,52.745 67.889,53.660 C70.023,54.575 69.820,52.644 69.109,52.237 C68.397,51.831 67.381,51.526 67.787,49.290 Z"/>
<path fill-rule="evenodd"  fill="rgb(255, 219, 0)"
 d="M116.164,138.726 C119.213,146.246 115.148,156.206 106.204,155.393 C106.204,155.393 115.870,156.570 118.603,150.922 C121.652,144.620 116.164,138.726 116.164,138.726 Z"/>
<path fill-rule="evenodd"  fill="rgb(255, 219, 0)"
 d="M63.315,86.081 C63.722,95.431 63.722,104.374 69.617,111.895 C75.511,119.416 83.235,123.684 90.146,126.123 C90.146,126.123 76.731,118.196 71.446,108.440 C66.161,98.683 63.315,86.081 63.315,86.081 Z"/>
<path fill-rule="evenodd"  fill="rgb(255, 219, 0)"
 d="M13.109,133.644 C12.093,139.945 11.687,151.125 17.581,158.646 C23.476,166.166 29.777,168.605 36.688,168.402 C36.688,168.402 23.764,162.042 18.801,153.564 C13.922,145.230 13.109,133.644 13.109,133.644 Z"/>
<path fill-rule="evenodd"  fill="rgb(255, 219, 0)"
 d="M69.007,133.644 C62.305,133.936 57.624,138.319 53.965,144.824 C53.965,144.824 60.266,138.116 67.381,136.896 C72.531,136.013 73.682,133.441 69.007,133.644 Z"/>
<path fill-rule="evenodd"  fill="rgb(255, 143, 0)"
 d="M44.819,33.232 C37.298,37.907 32.216,44.412 33.029,53.762 C33.842,63.112 36.688,64.331 36.688,64.331 C36.688,64.331 29.980,61.486 29.980,50.103 C29.980,37.297 44.819,33.232 44.819,33.232 Z"/>
<path fill-rule="evenodd"  fill="rgb(255, 143, 0)"
 d="M101.529,45.021 C103.358,49.696 105.594,61.486 94.415,67.990 C94.415,67.990 104.171,67.177 105.594,58.030 C107.017,48.883 101.529,45.021 101.529,45.021 Z"/>
<path fill-rule="evenodd"  fill="rgb(255, 143, 0)"
 d="M46.441,87.155 C50.866,77.323 40.491,67.791 30.697,72.458 C20.989,77.086 23.872,87.031 26.384,89.883 C29.759,93.715 42.017,96.987 46.441,87.155 Z"/>
<path fill-rule="evenodd"  fill="rgb(255, 143, 0)"
 d="M107.707,87.429 C111.810,78.311 102.188,69.471 93.106,73.799 C84.103,78.091 86.777,87.314 89.107,89.958 C92.237,93.512 103.604,96.546 107.707,87.429 Z"/>
<path fill-rule="evenodd"  fill="rgb(255, 143, 0)"
 d="M131.327,58.897 C135.462,49.706 125.764,40.796 116.609,45.158 C107.534,49.485 110.229,58.781 112.578,61.447 C115.732,65.029 127.191,68.088 131.327,58.897 Z"/>
<path fill-rule="evenodd"  fill="rgb(255, 143, 0)"
 d="M112.825,28.372 C117.018,19.054 107.186,10.020 97.904,14.443 C88.703,18.830 91.436,28.254 93.817,30.957 C97.015,34.589 108.632,37.690 112.825,28.372 Z"/>
<path fill-rule="evenodd"  fill="rgb(255, 143, 0)"
 d="M77.935,19.999 C81.773,11.470 72.773,3.201 64.278,7.250 C55.856,11.265 58.358,19.891 60.537,22.365 C63.464,25.689 74.097,28.527 77.935,19.999 Z"/>
<path fill-rule="evenodd"  fill="rgb(255, 143, 0)"
 d="M30.649,139.793 C40.843,139.545 44.729,126.798 36.743,120.355 C28.825,113.969 21.542,120.503 20.119,123.804 C17.081,130.848 20.454,140.041 30.649,139.793 Z"/>
<path fill-rule="evenodd"  fill="rgb(255, 143, 0)"
 d="M40.184,27.237 C44.078,18.584 34.946,10.195 26.327,14.302 C17.783,18.376 20.320,27.128 22.531,29.638 C25.502,33.011 36.290,35.891 40.184,27.237 Z"/>
<path fill-rule="evenodd"  fill="rgb(255, 143, 0)"
 d="M24.633,58.210 C28.268,50.135 19.748,42.305 11.704,46.137 C3.729,49.937 6.097,58.105 8.159,60.448 C10.931,63.596 20.998,66.285 24.633,58.210 Z"/>
</svg>
