<svg
 xmlns="http://www.w3.org/2000/svg"
 xmlns:xlink="http://www.w3.org/1999/xlink"
 width="136px" height="163px">
<path fill-rule="evenodd"  fill="rgb(0, 255, 0)"
 d="M68.584,0.173 C36.778,0.173 1.346,16.233 0.082,61.737 C-0.837,94.847 21.171,108.946 29.194,125.365 C37.134,141.616 44.306,162.910 67.726,162.910 C91.147,162.910 96.601,150.439 105.803,131.437 C115.005,112.436 134.874,91.099 135.689,61.737 C136.469,33.673 118.316,0.173 68.584,0.173 Z"/>
<path fill-rule="evenodd"  fill="rgb(0, 198, 0)"
 d="M19.585,94.833 C26.022,106.307 35.537,118.901 41.414,119.741 C47.291,120.580 50.090,109.666 50.370,100.710 C50.650,91.754 19.585,94.833 19.585,94.833 Z"/>
<path fill-rule="evenodd"  fill="rgb(0, 0, 0)"
 d="M16.320,86.064 C19.029,94.739 21.557,98.255 27.650,105.184 C38.896,119.181 49.810,120.860 50.537,95.439 C50.869,80.738 50.166,67.440 43.686,61.029 C36.810,54.226 10.723,58.637 16.320,86.064 Z"/>
<path fill-rule="evenodd"  fill="rgb(0, 198, 0)"
 d="M86.752,94.833 C86.752,109.106 95.148,117.222 99.346,117.782 C103.544,118.341 112.220,109.386 115.578,95.952 C118.937,82.519 86.752,94.833 86.752,94.833 Z"/>
<path fill-rule="evenodd"  fill="rgb(0, 0, 0)"
 d="M88.549,67.059 C85.353,73.377 85.697,83.955 86.407,91.722 C87.872,119.461 101.126,119.888 111.100,103.509 C114.490,98.898 116.551,93.678 118.377,87.930 C119.238,85.219 120.171,79.160 120.243,76.175 C120.747,55.231 94.682,54.346 88.549,67.059 Z"/>
<path fill-rule="evenodd"  fill="rgb(0, 151, 0)"
 d="M63.322,130.081 C57.651,129.055 62.348,117.330 64.520,117.189 C66.691,117.049 68.993,131.106 63.322,130.081 Z"/>
<path fill-rule="evenodd"  fill="rgb(0, 151, 0)"
 d="M73.882,130.056 C69.671,129.112 70.651,117.786 73.405,117.411 C76.159,117.037 79.665,131.352 73.882,130.056 Z"/>
<path fill-rule="evenodd"  fill="rgb(173, 0, 0)"
 d="M69.552,141.104 C55.992,141.104 55.231,134.919 51.649,138.555 C48.067,142.190 54.001,153.340 69.173,153.386 C84.345,153.431 91.945,141.504 88.101,137.897 C83.792,133.854 81.822,141.104 69.552,141.104 Z"/>
<path fill-rule="evenodd"  fill="rgb(255, 255, 255)"
 d="M54.753,137.423 C60.137,144.559 64.632,146.286 69.396,146.286 C74.160,146.286 81.368,143.565 83.294,136.673 C83.294,136.673 77.907,141.104 69.552,141.104 C61.196,141.104 54.753,137.423 54.753,137.423 Z"/>
<path fill-rule="evenodd"  fill="rgb(0, 226, 0)"
 d="M65.279,15.161 C64.967,27.586 62.991,27.458 59.353,27.522 C55.715,27.586 39.694,28.839 31.898,32.453 C31.898,32.453 59.989,30.766 62.478,32.453 C64.967,34.140 65.387,39.772 62.478,40.040 C59.570,40.308 33.299,37.877 19.477,46.058 C28.576,44.878 37.767,44.175 46.946,44.213 C55.666,44.249 64.025,44.442 64.734,54.990 C65.482,66.113 65.789,77.274 67.543,88.306 C67.998,79.637 68.243,70.962 68.616,62.290 C68.866,56.483 68.027,50.944 73.224,47.265 C82.646,40.594 97.143,43.313 107.760,44.739 C107.760,44.739 89.116,38.963 72.745,40.040 C69.401,40.260 69.112,32.887 72.437,32.164 C75.762,31.441 106.294,34.034 97.881,32.598 C96.570,32.374 90.653,29.273 80.822,28.550 C74.615,28.093 69.979,27.249 69.545,25.225 C69.112,23.201 66.654,8.888 66.654,8.888 L65.279,15.161 Z"/>
<path fill-rule="evenodd"  fill="rgb(255, 255, 255)"
 d="M29.152,64.102 C17.483,69.902 18.109,84.164 23.898,92.094 C29.687,100.024 18.159,79.777 29.152,64.102 Z"/>
<path fill-rule="evenodd"  fill="rgb(255, 255, 255)"
 d="M94.992,65.592 C91.958,67.571 89.787,77.158 91.715,93.543 C93.642,109.927 93.064,89.591 94.799,79.471 C96.703,68.365 99.425,62.701 94.992,65.592 Z"/>
<path fill-rule="evenodd"  fill="rgb(255, 255, 255)"
 d="M51.428,5.836 C35.621,8.921 24.249,13.547 14.611,29.161 C4.972,44.774 4.201,58.460 4.972,69.447 C4.972,69.447 8.249,43.232 19.044,29.353 C29.839,15.474 51.428,5.836 51.428,5.836 Z"/>
<path fill-rule="evenodd"  fill="rgb(0, 226, 0)"
 d="M53.879,118.127 C54.351,113.825 56.751,110.012 58.279,105.970 C59.014,104.027 60.307,85.354 60.866,87.216 C62.779,93.595 63.065,99.559 61.008,106.353 C58.494,114.657 54.065,116.425 53.879,118.127 Z"/>
<path fill-rule="evenodd"  fill="rgb(0, 226, 0)"
 d="M78.472,119.320 C79.043,117.857 77.907,116.390 77.120,115.036 C76.538,114.034 76.129,112.956 75.753,111.874 C74.092,107.090 73.047,102.123 72.643,97.103 C72.561,96.071 72.811,87.089 71.661,87.048 C69.979,86.989 69.449,105.862 69.999,107.454 C71.465,111.705 75.339,115.996 78.472,119.320 Z"/>
<path fill-rule="evenodd"  fill="rgb(212, 212, 212)"
 d="M54.753,137.423 C59.465,139.339 64.246,141.104 69.552,141.104 C74.858,141.104 77.977,139.752 83.114,137.100 C83.114,137.100 76.537,143.117 68.981,143.117 C61.425,143.117 54.753,137.423 54.753,137.423 Z"/>
<path fill-rule="evenodd"  fill="rgb(0, 198, 0)"
 d="M118.675,87.864 C116.814,93.728 114.713,99.056 111.257,103.772 C101.088,120.511 87.575,120.153 86.082,91.914 C85.357,84.009 85.007,73.239 88.265,66.786 C94.518,53.804 121.092,54.552 120.577,75.883 C120.504,78.923 119.553,85.099 118.675,87.864 ZM86.752,89.677 C86.752,89.677 90.621,95.224 101.653,95.702 C112.686,96.179 115.824,92.710 115.824,92.710 C109.760,83.683 96.842,80.779 86.752,89.677 Z"/>
<path fill-rule="evenodd"  fill="rgb(0, 198, 0)"
 d="M50.926,95.486 C50.195,121.054 38.917,119.365 27.607,105.287 C21.479,98.319 18.737,94.882 16.011,86.157 C10.382,58.572 36.820,54.035 43.736,60.878 C50.253,67.326 51.260,80.700 50.926,95.486 ZM18.764,91.471 C18.764,91.471 24.435,95.633 34.050,95.213 C44.335,94.764 50.136,87.740 50.136,87.740 C40.354,81.111 27.365,81.094 18.764,91.471 Z"/>
</svg>
