<svg
 xmlns="http://www.w3.org/2000/svg"
 xmlns:xlink="http://www.w3.org/1999/xlink"
 width="143px" height="172px">
<path fill-rule="evenodd"  fill="rgb(179, 0, 255)"
 d="M101.305,57.123 C98.809,59.065 97.320,62.237 97.421,65.397 C97.521,68.558 99.209,71.628 101.823,73.408 C97.596,72.831 92.981,74.481 90.566,77.998 C88.152,81.515 88.462,86.834 91.667,89.650 C89.868,87.432 86.180,87.947 83.830,88.776 C80.546,89.934 79.156,91.886 77.962,94.970 C77.159,97.042 77.583,99.719 79.420,100.970 C76.805,98.522 70.526,99.439 67.462,101.295 C63.841,103.489 61.862,107.217 61.685,111.447 C54.403,109.466 45.967,113.650 43.137,120.646 C39.616,118.741 35.088,118.854 31.666,120.933 C28.245,123.012 26.058,126.979 26.127,130.982 C19.493,131.354 9.705,133.973 5.196,139.325 C0.985,144.323 0.466,148.126 0.467,154.892 C0.468,168.685 32.388,171.443 73.767,171.443 C115.147,171.443 142.733,163.167 142.733,152.921 C142.733,134.024 56.213,136.758 56.034,136.763 C60.456,136.623 66.702,134.969 70.011,131.897 C71.061,130.922 71.812,129.516 71.645,128.093 C76.105,127.831 81.480,130.879 85.208,127.095 C86.943,125.334 87.552,122.550 86.710,120.226 C89.899,122.239 94.210,122.570 97.453,120.647 C100.696,118.724 102.484,114.442 101.158,110.912 C104.814,112.664 109.564,112.352 112.528,109.586 C115.491,106.820 115.947,101.551 113.043,98.722 C117.040,100.301 121.990,98.192 123.990,94.387 C125.990,90.582 125.117,85.601 122.257,82.392 C126.221,82.894 129.968,79.987 131.810,76.441 C133.751,72.704 134.051,68.151 132.618,64.191 C131.186,60.232 128.041,56.925 124.159,55.296 C130.967,49.970 127.612,39.019 118.896,38.584 C121.188,35.103 122.319,29.247 119.157,25.924 C116.222,22.838 110.945,20.141 106.644,20.258 C107.390,15.998 103.598,10.481 99.580,8.488 C94.415,5.925 88.303,9.682 88.552,11.489 C88.104,8.240 86.360,5.181 83.183,3.969 C81.169,3.201 78.912,3.419 76.882,3.982 C76.294,4.144 71.994,5.335 71.994,5.335 C71.994,5.335 70.152,3.241 68.804,2.138 C67.528,1.094 66.016,0.806 64.396,1.019 C59.863,1.617 56.425,6.582 57.462,11.036 C55.862,8.507 53.982,5.770 51.074,5.063 C49.956,4.791 48.776,4.856 47.654,5.111 C45.751,5.543 43.915,6.587 42.902,8.255 C41.889,9.923 41.881,12.258 43.180,13.714 C40.271,12.561 37.197,11.631 34.070,11.758 C30.943,11.886 27.735,13.220 25.981,15.812 C24.227,18.403 24.357,22.315 26.723,24.362 C22.211,22.501 13.547,23.518 11.285,28.670 C10.399,30.688 10.511,34.139 10.850,36.248 C10.969,36.986 13.261,43.565 14.260,42.970 C11.583,44.564 10.111,47.225 7.955,49.473 C4.779,52.783 3.549,58.306 3.422,62.675 C2.951,78.900 15.476,89.277 31.845,86.899 C39.573,85.776 46.422,81.067 49.833,73.985 C52.953,67.507 53.500,56.846 48.789,50.859 C51.179,51.631 53.857,49.774 54.581,47.370 C55.305,44.965 54.449,42.319 52.998,40.270 C54.662,41.234 56.972,40.890 58.283,39.484 C59.594,38.077 59.775,35.749 58.697,34.156 C60.577,35.125 62.810,35.629 64.824,34.980 C66.837,34.331 68.474,32.294 68.175,30.200 C69.796,32.867 72.323,35.163 75.395,35.712 C78.468,36.262 82.013,34.612 82.913,31.623 C82.398,33.797 83.222,36.231 84.952,37.644 C86.682,39.056 89.232,39.378 91.258,38.438 C90.092,40.018 90.924,42.441 92.538,43.559 C94.152,44.678 96.251,44.789 98.210,44.651 C97.166,46.944 95.347,51.020 96.615,53.467 C97.785,55.725 100.929,57.593 103.353,58.105 "/>
<path fill-rule="evenodd"  fill="rgb(121, 0, 194)"
 d="M59.580,136.369 C49.531,137.946 41.255,144.054 39.285,147.995 C37.314,151.936 42.995,154.957 45.590,148.192 C48.349,140.1000 60.171,136.566 60.171,136.566 L59.580,136.369 Z"/>
<path fill-rule="evenodd"  fill="rgb(0, 0, 0)"
 d="M38.261,69.937 C42.811,59.826 32.142,50.024 22.070,54.823 C12.087,59.583 15.052,69.809 17.635,72.742 C21.106,76.682 33.711,80.047 38.261,69.937 Z"/>
<path fill-rule="evenodd"  fill="rgb(255, 255, 255)"
 d="M21.219,59.742 C17.997,60.251 17.336,65.179 21.530,65.179 C25.724,65.179 24.171,59.276 21.219,59.742 Z"/>
<path fill-rule="evenodd"  fill="rgb(255, 255, 255)"
 d="M86.099,31.327 C86.666,28.122 87.443,24.908 88.845,21.946 C89.584,20.386 90.501,18.897 91.608,17.590 C92.154,16.945 94.913,15.124 95.056,14.535 C95.372,13.232 93.580,13.713 92.475,14.006 C85.917,15.748 86.132,25.905 86.099,31.327 Z"/>
<path fill-rule="evenodd"  fill="rgb(255, 255, 255)"
 d="M71.720,23.196 C72.530,19.108 73.517,14.703 76.673,11.981 C78.217,10.649 79.139,10.153 79.384,7.935 C79.403,7.764 79.409,7.574 79.301,7.440 C79.202,7.316 79.033,7.275 78.877,7.248 C72.638,6.167 72.500,19.258 71.720,23.196 Z"/>
<path fill-rule="evenodd"  fill="rgb(255, 255, 255)"
 d="M94.346,37.734 C97.022,34.419 99.868,31.102 103.461,28.745 C104.708,27.927 110.817,25.778 107.671,24.547 C105.079,23.533 101.400,26.206 99.773,27.815 C98.413,29.160 97.242,30.700 96.320,32.375 C95.522,33.824 95.290,36.565 94.346,37.734 Z"/>
<path fill-rule="evenodd"  fill="rgb(255, 255, 255)"
 d="M112.210,43.106 C112.707,43.142 113.210,43.216 113.557,43.592 C111.623,43.921 109.435,44.291 107.001,45.126 C104.725,45.907 102.382,47.703 99.699,48.703 C100.162,43.081 110.018,42.951 112.210,43.106 Z"/>
<path fill-rule="evenodd"  fill="rgb(255, 255, 255)"
 d="M112.149,60.028 C108.271,58.946 104.812,58.778 101.748,61.059 C101.056,61.574 100.385,62.547 100.889,63.601 C102.703,63.062 104.518,62.523 106.333,61.984 C107.604,61.607 108.881,61.228 110.232,61.099 C112.014,60.930 113.911,61.204 115.784,61.902 C114.754,61.518 113.647,60.468 112.709,60.189 C112.521,60.134 112.334,60.080 112.149,60.028 Z"/>
<path fill-rule="evenodd"  fill="rgb(255, 255, 255)"
 d="M63.763,23.257 C63.854,20.846 63.945,18.435 64.036,16.023 C64.102,14.286 64.156,12.533 64.450,10.816 C64.697,9.378 65.941,7.229 65.846,5.835 C65.725,4.042 64.719,4.469 63.389,5.881 C59.664,9.837 63.943,18.502 63.763,23.257 Z"/>
<path fill-rule="evenodd"  fill="rgb(255, 255, 255)"
 d="M56.636,17.897 C55.308,16.608 53.980,15.318 52.652,14.029 C51.695,13.100 50.738,12.153 49.625,11.392 C48.692,10.755 46.659,10.399 45.999,9.553 C45.150,8.465 46.109,8.018 47.819,7.902 C52.612,7.578 54.017,15.354 56.636,17.897 Z"/>
<path fill-rule="evenodd"  fill="rgb(255, 255, 255)"
 d="M12.684,50.064 C7.560,54.124 4.605,58.923 6.575,66.489 C8.546,74.056 11.895,76.271 11.895,76.271 C11.895,76.271 6.772,67.966 8.743,60.584 C10.713,53.201 12.684,50.064 12.684,50.064 Z"/>
<path fill-rule="evenodd"  fill="rgb(255, 255, 255)"
 d="M35.721,30.661 C30.832,27.858 25.322,26.705 20.277,27.431 C18.300,27.716 16.309,28.335 15.047,29.863 C13.784,31.391 13.498,34.032 14.866,35.884 C15.449,36.027 15.984,35.668 16.289,35.183 C16.593,34.698 16.725,34.098 16.920,33.541 C17.928,30.669 20.656,29.012 23.547,28.546 C26.438,28.080 29.515,28.629 32.533,29.176 "/>
<path fill-rule="evenodd"  fill="rgb(255, 255, 255)"
 d="M49.923,23.708 C47.423,21.199 44.780,18.772 41.673,17.096 C38.566,15.421 34.922,14.543 31.472,15.299 C30.825,15.440 30.093,15.731 29.912,16.377 C29.736,17.002 30.214,17.660 30.809,17.900 C31.403,18.140 32.071,18.067 32.706,17.976 C34.146,17.769 35.583,17.484 37.037,17.473 C40.457,17.446 47.478,21.081 49.677,23.726 "/>
<path fill-rule="evenodd"  fill="rgb(255, 255, 255)"
 d="M95.684,77.577 C92.744,78.842 91.502,81.141 92.487,80.606 C99.383,76.862 108.644,80.212 108.644,80.212 C108.644,80.212 102.642,74.585 95.684,77.577 Z"/>
<path fill-rule="evenodd"  fill="rgb(255, 255, 255)"
 d="M86.315,90.746 C83.588,90.933 80.633,92.796 81.452,94.399 C83.422,93.808 88.934,90.083 97.939,97.077 C95.245,93.414 90.516,90.458 86.315,90.746 Z"/>
<path fill-rule="evenodd"  fill="rgb(255, 255, 255)"
 d="M71.467,104.051 C67.100,104.732 66.207,105.766 65.663,108.043 C65.118,110.320 65.481,109.984 65.481,109.984 C65.481,109.984 67.114,106.700 70.742,106.101 C74.369,105.502 82.894,107.859 82.894,107.859 C82.894,107.859 75.820,103.371 71.467,104.051 Z"/>
<path fill-rule="evenodd"  fill="rgb(255, 255, 255)"
 d="M52.452,115.536 C48.719,117.163 47.956,118.391 47.491,120.786 C47.026,123.181 47.336,122.767 47.336,122.767 C47.336,122.767 48.731,119.129 51.832,117.744 C54.932,116.359 62.218,116.868 62.218,116.868 C62.218,116.868 56.172,113.913 52.452,115.536 Z"/>
<path fill-rule="evenodd"  fill="rgb(255, 255, 255)"
 d="M33.513,124.309 C30.924,126.145 30.395,127.415 30.073,129.836 C29.750,132.257 29.965,131.825 29.965,131.825 C29.965,131.825 31.420,128.469 33.570,126.911 C35.720,125.353 40.285,125.096 40.285,125.096 C40.285,125.096 36.093,122.479 33.513,124.309 Z"/>
<path fill-rule="evenodd"  fill="rgb(255, 255, 255)"
 d="M21.551,135.384 C16.624,135.384 8.349,140.507 6.772,147.601 C5.196,154.694 8.743,158.044 8.743,158.044 C8.743,158.044 7.560,149.571 10.516,145.236 C13.472,140.901 14.851,137.749 21.551,135.384 Z"/>
<path fill-rule="evenodd"  fill="rgb(255, 255, 255)"
 d="M61.705,141.086 C70.984,140.345 80.206,141.211 87.327,143.147 C87.327,143.147 73.288,143.471 62.851,144.049 C57.335,144.355 58.568,141.336 61.705,141.086 Z"/>
<path fill-rule="evenodd"  fill="rgb(121, 0, 194)"
 d="M64.900,164.941 C74.161,165.926 113.570,165.926 133.275,155.286 C133.275,155.286 130.713,163.561 106.280,166.320 C81.846,169.079 64.900,164.941 64.900,164.941 Z"/>
<path fill-rule="evenodd"  fill="rgb(121, 0, 194)"
 d="M110.812,76.468 C116.723,78.438 127.363,77.256 129.925,68.980 C129.925,68.980 130.516,76.862 123.817,78.044 C117.117,79.227 110.812,76.468 110.812,76.468 Z"/>
<path fill-rule="evenodd"  fill="rgb(121, 0, 194)"
 d="M103.718,94.399 C109.629,96.369 120.270,95.187 122.831,86.911 C122.831,86.911 123.423,94.793 116.723,95.975 C110.023,97.158 103.718,94.399 103.718,94.399 Z"/>
<path fill-rule="evenodd"  fill="rgb(121, 0, 194)"
 d="M111.676,54.595 C116.631,55.356 124.427,52.134 124.406,43.595 C124.406,43.595 126.726,51.137 121.922,53.591 C117.117,56.045 111.676,54.595 111.676,54.595 Z"/>
<path fill-rule="evenodd"  fill="rgb(121, 0, 194)"
 d="M104.161,38.933 C108.934,38.951 117.137,34.885 117.905,29.571 C117.905,29.571 119.190,35.393 114.268,37.364 C109.345,39.335 104.161,38.933 104.161,38.933 Z"/>
<path fill-rule="evenodd"  fill="rgb(121, 0, 194)"
 d="M95.727,105.187 C99.782,107.704 108.899,108.543 112.340,104.422 C112.340,104.422 110.381,110.052 105.156,109.149 C99.931,108.246 95.727,105.187 95.727,105.187 Z"/>
<path fill-rule="evenodd"  fill="rgb(121, 0, 194)"
 d="M81.934,114.448 C85.989,116.965 94.563,117.043 98.004,112.921 C98.004,112.921 96.588,119.313 91.363,118.410 C86.138,117.508 81.934,114.448 81.934,114.448 Z"/>
<path fill-rule="evenodd"  fill="rgb(121, 0, 194)"
 d="M71.009,124.153 C71.009,124.153 81.196,124.310 84.410,120.017 C84.410,120.017 84.408,124.547 80.073,125.335 C75.738,126.123 71.009,124.153 71.009,124.153 Z"/>
<path fill-rule="evenodd"  fill="rgb(121, 0, 194)"
 d="M52.684,131.640 C52.684,131.640 62.871,131.797 66.085,127.505 C66.085,127.505 66.083,132.034 61.748,132.823 C57.413,133.611 52.684,131.640 52.684,131.640 Z"/>
<path fill-rule="evenodd"  fill="rgb(121, 0, 194)"
 d="M93.604,27.753 C97.635,25.197 102.358,17.353 100.143,12.463 C100.143,12.463 104.361,16.676 101.275,20.987 C98.188,25.299 93.604,27.753 93.604,27.753 Z"/>
<path fill-rule="evenodd"  fill="rgb(121, 0, 194)"
 d="M82.817,18.515 C82.923,23.286 79.010,31.564 73.711,32.430 C73.711,32.430 79.555,33.607 81.435,28.649 C83.315,23.691 82.817,18.515 82.817,18.515 Z"/>
<path fill-rule="evenodd"  fill="rgb(121, 0, 194)"
 d="M68.630,16.741 C68.736,21.513 64.823,29.790 59.524,30.656 C59.524,30.656 65.368,31.833 67.248,26.875 C69.127,21.917 68.630,16.741 68.630,16.741 Z"/>
<path fill-rule="evenodd"  fill="rgb(121, 0, 194)"
 d="M42.961,26.228 C47.693,26.848 55.280,31.972 55.331,37.341 C55.331,37.341 57.382,31.744 52.767,29.133 C48.152,26.522 42.961,26.228 42.961,26.228 Z"/>
<path fill-rule="evenodd"  fill="rgb(121, 0, 194)"
 d="M43.381,38.343 C46.992,38.700 52.416,43.318 51.982,48.573 C51.982,48.573 54.065,42.983 50.721,40.670 C47.376,38.357 43.381,38.343 43.381,38.343 Z"/>
<path fill-rule="evenodd"  fill="rgb(121, 0, 194)"
 d="M47.954,57.749 C50.319,64.842 50.713,71.936 45.196,77.256 C39.679,82.576 35.935,82.773 35.935,82.773 C35.935,82.773 44.408,75.680 46.181,68.980 C47.954,62.281 47.954,57.749 47.954,57.749 Z"/>
</svg>
