<svg
 xmlns="http://www.w3.org/2000/svg"
 xmlns:xlink="http://www.w3.org/1999/xlink"
 width="142px" height="169px">
<path fill-rule="evenodd"  fill="rgb(189, 189, 189)"
 d="M129.257,158.341 C133.878,151.008 134.551,141.080 131.349,133.452 C127.683,124.721 119.985,116.659 109.887,116.848 C127.659,113.317 140.850,91.997 141.074,73.884 C141.265,58.420 140.018,48.536 133.044,35.374 C121.000,12.644 102.246,4.530 79.878,1.616 C56.797,-1.390 32.177,5.030 15.573,23.753 C-9.729,52.284 -0.804,105.186 30.139,119.897 C18.683,124.018 8.969,133.332 12.524,147.337 C14.483,155.052 18.336,161.054 25.337,164.591 C32.616,168.267 40.300,167.718 47.685,165.106 C52.165,163.521 54.651,160.017 58.246,157.390 C62.283,154.439 64.797,158.682 69.980,158.884 C73.488,159.020 76.982,158.032 80.095,156.409 C84.025,154.360 90.538,162.993 94.033,165.224 C102.406,170.571 117.555,170.271 125.589,162.794 C127.007,161.474 128.230,159.972 129.257,158.341 Z"/>
<path fill-rule="evenodd"  fill="rgb(158, 158, 158)"
 d="M22.869,150.583 C25.976,157.471 30.516,161.085 36.248,161.085 C43.928,161.085 49.366,153.142 49.366,147.297 C49.366,141.453 22.869,150.583 22.869,150.583 Z"/>
<path fill-rule="evenodd"  fill="rgb(158, 158, 158)"
 d="M94.248,149.759 C97.355,156.647 101.895,160.262 107.627,160.262 C115.307,160.262 120.746,152.318 120.746,146.474 C120.746,140.629 94.248,149.759 94.248,149.759 Z"/>
<path fill-rule="evenodd"  fill="rgb(0, 0, 0)"
 d="M31.487,130.598 C20.896,133.348 17.100,146.547 25.819,154.096 C34.680,161.769 46.439,157.917 49.366,147.297 C52.293,136.678 41.723,127.941 31.487,130.598 Z"/>
<path fill-rule="evenodd"  fill="rgb(255, 255, 255)"
 d="M27.771,138.924 C27.718,138.968 27.665,139.014 27.612,139.062 C24.839,141.549 27.261,146.754 31.054,145.495 C36.780,143.594 32.301,135.149 27.771,138.924 Z"/>
<path fill-rule="evenodd"  fill="rgb(0, 0, 0)"
 d="M119.761,149.694 C125.116,137.796 112.560,126.260 100.707,131.908 C88.958,137.509 93.090,149.318 96.065,152.825 C101.757,159.533 114.407,161.593 119.761,149.694 Z"/>
<path fill-rule="evenodd"  fill="rgb(255, 255, 255)"
 d="M99.706,137.697 C95.914,138.296 95.136,144.096 100.071,144.096 C105.007,144.096 103.179,137.149 99.706,137.697 Z"/>
<path fill-rule="evenodd"  fill="rgb(158, 158, 158)"
 d="M73.525,63.209 C80.001,61.913 119.328,65.341 119.325,63.267 C119.322,61.192 72.766,60.875 72.223,58.282 C71.679,55.689 68.765,46.824 72.272,45.528 C75.779,44.231 108.342,45.367 114.961,47.910 C120.361,49.985 115.464,45.576 109.255,44.280 C103.046,42.983 73.614,40.082 71.723,38.786 C69.832,37.489 70.820,25.646 72.174,23.794 C75.019,19.905 99.775,28.948 109.227,31.784 C113.547,33.081 90.273,18.041 71.112,18.819 C51.952,19.597 40.666,24.264 29.617,35.415 C29.617,35.415 54.292,20.942 65.956,23.794 C68.107,24.320 67.673,37.230 67.135,38.526 C66.597,39.823 44.473,40.390 27.382,47.651 C16.011,52.481 32.227,48.232 45.775,45.058 C57.949,42.205 66.498,41.427 66.763,45.058 C67.144,50.293 67.892,57.245 66.005,59.060 C64.118,60.875 21.445,63.468 21.706,65.284 C21.707,65.802 66.764,61.394 67.307,63.987 C67.851,66.580 67.606,76.953 67.068,77.990 C66.530,79.027 26.251,78.708 23.282,78.968 C20.314,79.227 67.321,81.101 67.593,83.176 C67.866,85.250 69.739,96.932 67.872,97.179 C48.675,99.716 26.219,93.360 26.392,94.295 C26.564,95.229 40.383,99.342 61.285,101.772 C63.085,101.981 65.358,102.136 67.803,102.221 C68.626,102.663 68.909,103.555 68.909,106.150 C68.909,109.131 68.415,112.498 66.318,113.505 C58.268,113.657 50.300,113.814 44.725,113.814 C45.243,114.562 62.690,116.805 65.799,117.366 C68.909,117.926 69.599,124.281 70.809,125.403 C72.018,126.524 71.904,118.979 73.573,117.926 C75.645,116.618 97.756,115.123 97.238,113.814 C96.959,113.111 86.442,113.164 74.282,113.363 C71.627,112.341 71.363,108.621 71.672,105.777 C72.018,102.599 71.154,102.599 77.027,102.225 L76.890,102.176 C78.605,102.091 80.233,101.960 81.668,101.772 C87.604,100.994 109.449,98.353 112.415,96.538 C115.381,94.723 89.959,99.902 72.536,97.179 C70.604,96.876 70.702,82.398 71.738,82.398 C74.288,82.398 119.553,82.609 113.075,81.571 C106.596,80.534 73.670,80.275 73.129,78.978 C72.587,77.682 69.681,63.979 73.525,63.209 Z"/>
<path fill-rule="evenodd"  fill="rgb(173, 0, 0)"
 d="M61.989,137.156 C60.234,136.893 58.561,137.231 58.575,139.856 C58.598,144.540 62.011,147.065 64.586,148.242 C69.397,150.441 76.477,150.884 80.682,146.856 C81.756,145.828 82.745,144.223 83.167,142.377 C83.533,140.777 83.543,138.150 82.100,137.860 C80.265,137.491 78.434,137.776 76.620,138.028 C72.898,138.543 69.122,138.912 65.364,138.042 C64.621,137.870 63.283,137.350 61.989,137.156 Z"/>
<path fill-rule="evenodd"  fill="rgb(255, 255, 255)"
 d="M60.530,137.126 C63.081,141.233 65.605,143.629 71.168,143.478 C76.730,143.326 80.158,140.470 81.383,137.751 C81.383,137.751 77.243,138.383 70.877,138.557 C64.510,138.730 60.530,137.126 60.530,137.126 Z"/>
<path fill-rule="evenodd"  fill="rgb(212, 212, 212)"
 d="M60.413,137.034 C64.157,137.424 67.269,138.457 71.290,138.348 C75.311,138.238 78.003,137.860 81.496,137.663 C81.496,137.663 77.320,139.911 71.594,140.067 C65.868,140.223 60.413,137.034 60.413,137.034 Z"/>
<path fill-rule="evenodd"  fill="rgb(255, 255, 255)"
 d="M27.653,20.629 C11.392,29.979 6.920,53.557 6.920,69.819 C6.920,86.080 16.677,101.528 27.653,107.626 C27.653,107.626 11.392,95.836 11.392,70.632 C11.392,36.077 27.653,20.629 27.653,20.629 Z"/>
<path fill-rule="evenodd"  fill="rgb(214, 214, 214)"
 d="M131.724,55.590 C135.789,66.160 137.822,90.145 120.341,103.560 C120.341,103.560 125.219,99.495 129.285,82.014 C133.350,64.534 131.724,55.590 131.724,55.590 Z"/>
<path fill-rule="evenodd"  fill="rgb(158, 158, 158)"
 d="M31.408,130.328 C20.605,133.132 16.734,146.595 25.627,154.296 C34.665,162.122 46.660,158.193 49.645,147.361 C52.631,136.529 41.849,127.618 31.408,130.328 Z"/>
<path fill-rule="evenodd"  fill="rgb(158, 158, 158)"
 d="M120.018,149.802 C125.479,137.665 112.672,125.898 100.582,131.659 C88.598,137.373 92.812,149.418 95.848,152.995 C101.653,159.837 114.556,161.938 120.018,149.802 Z"/>
</svg>
