<svg
 xmlns="http://www.w3.org/2000/svg"
 xmlns:xlink="http://www.w3.org/1999/xlink"
 width="163px" height="157px">
<path fill-rule="evenodd"  fill="rgb(255, 65, 255)"
 d="M159.369,32.202 C165.499,23.559 163.734,11.386 155.102,4.659 C146.717,-1.874 136.791,0.415 130.024,4.793 C124.514,8.358 121.067,15.454 115.125,18.189 C110.041,20.529 103.856,17.048 99.459,14.750 C96.500,13.203 93.369,12.054 90.469,10.435 C83.337,6.454 74.308,9.990 67.598,13.569 C60.651,17.274 50.952,23.098 43.228,18.176 C38.105,14.912 35.922,8.618 30.149,6.087 C20.061,1.663 2.485,5.011 0.472,22.206 C-1.462,38.733 19.093,43.232 15.848,59.019 C13.425,65.919 11.970,73.482 11.667,81.641 C10.103,123.697 34.270,156.788 85.799,156.560 C137.042,156.334 157.101,129.166 158.227,89.462 C158.631,75.234 155.067,61.600 148.323,49.910 C145.318,43.151 154.080,39.659 159.369,32.202 Z"/>
<path fill-rule="evenodd"  fill="rgb(173, 0, 0)"
 d="M83.594,37.448 C61.559,37.448 39.501,48.566 35.617,76.980 C31.732,105.394 46.674,135.044 83.1000,135.867 C121.325,136.691 132.894,112.807 133.944,86.452 C134.994,60.097 113.088,37.448 83.594,37.448 Z"/>
<path fill-rule="evenodd"  fill="rgb(74, 0, 0)"
 d="M114.337,61.200 C112.148,68.960 116.302,72.519 122.893,74.631 C119.013,80.203 121.401,87.167 125.281,90.251 C117.819,93.335 118.516,103.384 120.704,106.269 C112.347,107.364 112.447,111.940 111.651,116.417 C105.283,114.925 101.602,118.606 100.408,122.984 C97.026,118.705 89.265,119.899 86.977,124.277 C86.977,124.277 83.893,117.114 72.850,121.292 C72.850,121.292 71.059,112.836 59.916,115.323 C59.916,115.323 58.224,105.274 49.270,105.175 C49.270,105.175 53.051,93.236 45.390,89.953 C45.390,89.953 52.653,82.591 46.286,74.233 C46.286,74.233 57.727,69.756 54.941,58.812 C54.941,58.812 69.865,58.713 70.860,48.963 C70.860,48.963 82.102,55.430 87.972,47.968 C87.972,47.968 96.230,55.728 104.089,52.047 C104.089,52.047 105.283,61.598 114.337,61.200 Z"/>
<path fill-rule="evenodd"  fill="rgb(115, 0, 0)"
 d="M35.617,76.980 C36.781,74.287 38.028,73.139 41.311,71.647 C39.743,67.130 44.495,56.624 51.758,55.629 C52.454,50.057 60.015,42.794 69.467,44.585 C73.745,39.511 85.087,39.113 88.470,43.988 C93.544,40.705 102.697,39.810 105.084,48.266 C112.546,46.177 117.819,51.450 118.317,57.519 C126.176,57.320 129.758,67.567 128.365,72.144 C131.648,73.238 132.801,75.942 133.587,78.752 C130.572,55.836 110.167,37.448 83.594,37.448 C61.559,37.448 39.501,48.566 35.617,76.980 Z"/>
<path fill-rule="evenodd"  fill="rgb(255, 255, 255)"
 d="M55.638,54.019 C61.024,61.584 67.625,62.906 69.145,63.661 C70.675,64.421 68.221,47.290 66.191,47.073 C64.185,46.859 57.906,49.776 55.638,54.019 Z"/>
<path fill-rule="evenodd"  fill="rgb(255, 255, 255)"
 d="M72.551,46.005 C73.094,50.391 78.309,60.688 78.991,60.236 C79.672,59.785 85.052,51.740 85.461,45.788 C84.232,43.824 73.986,44.623 72.551,46.005 Z"/>
<path fill-rule="evenodd"  fill="rgb(255, 255, 255)"
 d="M90.466,46.236 C88.667,52.527 93.126,60.981 93.126,60.981 C93.126,60.981 101.206,52.594 101.847,48.812 C99.069,46.762 93.774,45.447 90.466,46.236 Z"/>
<path fill-rule="evenodd"  fill="rgb(255, 255, 255)"
 d="M59.219,120.496 C62.403,114.328 69.276,109.850 69.276,109.850 C69.276,109.850 72.153,119.700 69.566,125.869 C69.566,125.869 63.995,125.869 59.219,120.496 Z"/>
<path fill-rule="evenodd"  fill="rgb(255, 255, 255)"
 d="M46.883,109.154 C47.877,113.134 52.653,117.313 54.842,118.109 C62.602,109.950 60.674,104.777 60.674,104.777 C60.674,104.777 51.857,105.374 46.883,109.154 Z"/>
<path fill-rule="evenodd"  fill="rgb(255, 255, 255)"
 d="M42.731,92.274 C40.640,92.795 41.987,100.480 44.035,103.335 C53.345,100.957 57.182,93.678 57.182,93.678 C57.182,93.678 51.297,90.142 42.731,92.274 Z"/>
<path fill-rule="evenodd"  fill="rgb(255, 255, 255)"
 d="M41.219,87.577 C45.609,88.541 54.325,82.511 54.325,82.511 C54.325,82.511 44.431,74.944 42.267,76.769 C39.530,80.372 41.219,87.577 41.219,87.577 Z"/>
<path fill-rule="evenodd"  fill="rgb(255, 255, 255)"
 d="M126.846,75.696 C128.996,79.189 128.645,85.525 127.683,87.646 C116.425,87.491 113.691,82.677 113.691,82.677 C113.691,82.677 120.665,76.609 126.846,75.696 Z"/>
<path fill-rule="evenodd"  fill="rgb(255, 255, 255)"
 d="M118.810,61.335 C120.645,60.204 125.197,66.539 125.807,70.000 C117.597,74.994 109.450,72.875 109.450,72.875 C109.450,72.875 111.297,65.969 118.810,61.335 Z"/>
<path fill-rule="evenodd"  fill="rgb(255, 255, 255)"
 d="M115.247,57.674 C112.898,61.499 102.726,64.551 102.726,64.551 C102.726,64.551 104.773,52.162 107.441,51.711 C111.665,51.945 115.247,57.674 115.247,57.674 Z"/>
<path fill-rule="evenodd"  fill="rgb(255, 255, 255)"
 d="M127.625,92.964 C123.273,92.190 111.721,94.995 111.951,95.779 C112.182,96.563 118.461,103.219 124.028,105.365 C126.267,104.769 128.523,94.742 127.625,92.964 Z"/>
<path fill-rule="evenodd"  fill="rgb(255, 255, 255)"
 d="M123.935,109.673 C118.946,105.439 109.671,106.336 109.671,106.336 C109.671,106.336 113.714,116.834 116.894,118.978 C119.907,117.293 123.290,113.012 123.935,109.673 Z"/>
<path fill-rule="evenodd"  fill="rgb(255, 255, 255)"
 d="M103.633,126.586 C100.881,123.042 101.656,112.790 101.656,112.790 C101.656,112.790 109.856,117.840 111.974,121.388 C110.262,125.254 103.633,126.586 103.633,126.586 Z"/>
<path fill-rule="evenodd"  fill="rgb(255, 255, 255)"
 d="M44.893,70.055 C50.650,73.107 59.939,71.562 59.939,71.562 C59.939,71.562 57.473,64.516 50.836,59.366 C45.636,63.247 44.893,70.055 44.893,70.055 Z"/>
<path fill-rule="evenodd"  fill="rgb(255, 255, 255)"
 d="M100.120,127.609 C99.984,123.116 92.176,115.865 92.176,115.865 C92.176,115.865 87.085,127.575 89.383,129.228 C93.545,131.004 100.120,127.609 100.120,127.609 Z"/>
<path fill-rule="evenodd"  fill="rgb(255, 255, 255)"
 d="M84.721,129.102 C85.586,122.644 80.830,114.243 80.830,114.243 C80.830,114.243 75.162,119.225 72.635,127.236 C78.078,130.767 84.721,129.102 84.721,129.102 Z"/>
<path fill-rule="evenodd"  fill="rgb(255, 0, 176)"
 d="M141.000,74.532 C142.990,100.200 141.398,121.889 113.143,137.410 C113.143,137.410 134.036,131.838 140.403,112.935 C146.771,94.032 141.000,74.532 141.000,74.532 Z"/>
<path fill-rule="evenodd"  fill="rgb(255, 0, 176)"
 d="M136.822,132.037 C115.967,146.079 95.365,151.214 61.209,143.976 C61.209,143.976 79.215,152.627 103.194,149.547 C124.883,146.762 136.822,132.037 136.822,132.037 Z"/>
<path fill-rule="evenodd"  fill="rgb(255, 0, 176)"
 d="M107.785,28.960 C132.188,40.720 145.294,55.353 148.956,80.576 C148.956,80.576 151.815,66.486 140.820,49.900 C128.986,32.046 107.785,28.960 107.785,28.960 Z"/>
<path fill-rule="evenodd"  fill="rgb(255, 0, 176)"
 d="M31.163,105.971 C25.192,80.927 26.292,59.883 51.779,40.144 C51.779,40.144 28.983,51.031 25.644,70.696 C22.304,90.362 31.163,105.971 31.163,105.971 Z"/>
<path fill-rule="evenodd"  fill="rgb(255, 0, 176)"
 d="M53.449,143.180 C32.751,127.677 20.158,109.332 19.356,72.739 C19.356,72.739 15.481,101.033 25.791,118.109 C38.525,139.200 53.449,143.180 53.449,143.180 Z"/>
<path fill-rule="evenodd"  fill="rgb(173, 0, 0)"
 d="M129.080,20.026 C129.080,28.269 132.444,36.029 140.801,36.924 C149.159,37.820 154.396,30.787 154.911,22.961 C155.426,15.136 129.080,20.026 129.080,20.026 Z"/>
<path fill-rule="evenodd"  fill="rgb(173, 0, 0)"
 d="M8.806,21.015 C8.860,29.742 12.091,37.937 19.999,38.835 C27.906,39.733 32.813,32.256 33.249,23.969 C33.685,15.681 8.806,21.015 8.806,21.015 Z"/>
<path fill-rule="evenodd"  fill="rgb(0, 0, 0)"
 d="M142.191,8.480 C134.539,8.662 129.667,12.785 129.080,20.026 C128.493,27.267 134.755,32.942 141.996,33.333 C149.236,33.725 154.304,28.882 154.911,22.961 C155.694,15.329 150.410,8.284 142.191,8.480 Z"/>
<path fill-rule="evenodd"  fill="rgb(0, 0, 0)"
 d="M33.110,23.578 C32.558,16.333 28.198,11.719 20.927,11.162 C13.657,10.605 8.283,16.533 8.242,23.389 C8.201,30.245 13.289,35.044 19.241,35.620 C26.912,36.362 33.703,31.361 33.110,23.578 Z"/>
<path fill-rule="evenodd"  fill="rgb(255, 255, 255)"
 d="M139.350,14.003 C136.526,12.048 131.409,16.734 135.436,20.006 C139.463,23.278 143.931,17.174 139.350,14.003 Z"/>
<path fill-rule="evenodd"  fill="rgb(255, 255, 255)"
 d="M13.673,17.904 C10.571,22.037 16.021,26.229 19.047,21.551 C20.912,18.667 16.775,13.772 13.673,17.904 Z"/>
<path fill-rule="evenodd"  fill="rgb(173, 0, 0)"
 d="M75.882,16.645 C74.578,16.942 73.219,17.724 72.298,18.357 C71.269,19.064 68.452,21.750 70.590,22.750 C71.314,23.088 74.972,21.544 75.966,21.413 C77.016,21.275 78.137,21.104 78.918,20.387 C80.574,18.865 78.989,16.722 77.215,16.540 C76.792,16.497 76.340,16.541 75.882,16.645 Z"/>
<path fill-rule="evenodd"  fill="rgb(173, 0, 0)"
 d="M85.106,17.594 C84.786,18.416 84.901,19.465 85.408,20.235 C85.539,20.435 85.699,20.620 85.900,20.747 C86.085,20.865 86.297,20.929 86.509,20.983 C88.168,21.404 89.991,21.221 91.567,21.980 C92.547,22.453 94.275,23.215 94.885,21.778 C95.355,20.669 93.890,19.262 92.792,18.540 C90.916,17.304 88.867,15.984 86.667,16.326 C85.869,16.450 85.355,16.953 85.106,17.594 Z"/>
<path fill-rule="evenodd"  fill="rgb(0, 0, 0)"
 d="M74.650,66.650 C77.108,66.801 79.628,68.397 80.271,70.798 C81.337,74.777 77.152,78.762 78.517,82.719 C79.470,85.481 82.827,86.629 85.419,87.081 C88.328,87.589 92.205,85.918 92.921,82.757 C93.597,79.766 90.731,76.458 89.921,73.808 C89.290,71.744 89.417,69.253 91.058,67.929 C92.237,66.977 93.924,66.846 95.486,67.014 C100.938,67.600 106.070,71.625 107.906,76.842 C108.659,78.981 108.887,81.242 108.997,83.484 C109.242,88.512 108.861,93.777 106.308,98.020 C103.687,102.375 98.992,106.626 94.049,107.954 C87.570,109.694 78.329,109.211 72.262,105.371 C68.952,103.277 66.901,101.944 64.773,98.561 C62.971,95.695 61.598,92.559 60.843,89.313 C59.350,82.895 60.537,76.251 64.917,71.516 C67.362,68.873 70.822,66.416 74.650,66.650 Z"/>
<path fill-rule="evenodd"  fill="rgb(115, 0, 0)"
 d="M81.868,75.840 C80.905,79.114 79.557,81.618 82.831,83.544 C86.105,85.469 86.297,82.195 83.986,80.462 C81.675,78.729 81.868,75.840 81.868,75.840 Z"/>
<path fill-rule="evenodd"  fill="rgb(255, 0, 176)"
 d="M29.256,50.418 C36.756,40.040 46.608,34.364 54.759,30.793 C49.979,31.228 46.069,32.803 39.710,36.803 C33.030,41.005 29.256,50.418 29.256,50.418 Z"/>
<path fill-rule="evenodd"  fill="rgb(255, 0, 176)"
 d="M149.159,98.807 C148.562,104.976 146.373,117.114 141.398,121.889 C141.398,121.889 148.363,117.910 149.756,110.945 C151.148,103.981 149.159,98.807 149.159,98.807 Z"/>
</svg>
