<?xml version="1.0" encoding="utf-8"?>
<!-- Generator: Adobe Illustrator 27.0.0, SVG Export Plug-In . SVG Version: 6.00 Build 0)  -->
<svg version="1.1" id="Layer_1" xmlns="http://www.w3.org/2000/svg" xmlns:xlink="http://www.w3.org/1999/xlink" x="0px" y="0px"
	 viewBox="0 0 1230 110" style="enable-background:new 0 0 1230 110;" xml:space="preserve">
<style type="text/css">
	.st0{fill:url(#SVGID_1_);stroke:#00FFFF;stroke-width:3;stroke-linecap:round;stroke-linejoin:round;stroke-miterlimit:10;}
	
		.st1{fill:url(#SVGID_00000038414596714010834360000013995968750515084716_);stroke:#00FFFF;stroke-width:3;stroke-linecap:round;stroke-linejoin:round;stroke-miterlimit:10;}
	
		.st2{fill:url(#SVGID_00000138570077323632634530000000644539873294284423_);stroke:#00FFFF;stroke-width:3;stroke-linecap:round;stroke-linejoin:round;stroke-miterlimit:10;}
	.st3{fill:url(#SVGID_00000075142850576310771890000012788294198918632584_);}
	.st4{fill:none;stroke:#00FFFF;stroke-width:3;stroke-linecap:round;stroke-linejoin:round;stroke-miterlimit:10;}
	
		.st5{fill:url(#SVGID_00000095297923998000494330000001009970010560769201_);stroke:#00FFFF;stroke-width:3;stroke-linecap:round;stroke-linejoin:round;stroke-miterlimit:10;}
	
		.st6{fill:url(#SVGID_00000137835288824807842250000016412879142396772030_);stroke:#00FFFF;stroke-width:3;stroke-linecap:round;stroke-linejoin:round;stroke-miterlimit:10;}
	
		.st7{fill:url(#SVGID_00000081606239432055123990000014404708144070852994_);stroke:#00FFFF;stroke-width:3;stroke-linecap:round;stroke-linejoin:round;stroke-miterlimit:10;}
	
		.st8{fill:url(#SVGID_00000142160075393961617560000017431249445218509501_);stroke:#00FFFF;stroke-width:3;stroke-linecap:round;stroke-linejoin:round;stroke-miterlimit:10;}
	.st9{stroke:#00FFFF;stroke-width:3;stroke-linecap:round;stroke-linejoin:round;stroke-miterlimit:10;}
	
		.st10{fill:url(#SVGID_00000101786122212819434400000000122721842258247599_);stroke:#00FFFF;stroke-width:3;stroke-linecap:round;stroke-linejoin:round;stroke-miterlimit:10;}
	
		.st11{fill:url(#SVGID_00000004522228352278386680000018209801172963898753_);stroke:#00FFFF;stroke-width:3;stroke-linecap:round;stroke-linejoin:round;stroke-miterlimit:10;}
	
		.st12{fill:url(#SVGID_00000163049118142105483740000013892009513217897088_);stroke:#00FFFF;stroke-width:3;stroke-linecap:round;stroke-linejoin:round;stroke-miterlimit:10;}
	
		.st13{fill:url(#SVGID_00000144336751133352334380000000031097542374757526_);stroke:#00FFFF;stroke-width:3;stroke-linecap:round;stroke-linejoin:round;stroke-miterlimit:10;}
	
		.st14{fill:url(#SVGID_00000088850229373030588880000006660202119323622044_);stroke:#00FFFF;stroke-width:3;stroke-linecap:round;stroke-linejoin:round;stroke-miterlimit:10;}
</style>
<g id="Logo_Lab">
	<g>
		<g>
			
				<linearGradient id="SVGID_1_" gradientUnits="userSpaceOnUse" x1="1000.7927" y1="106.6527" x2="1000.7927" y2="9.7555" gradientTransform="matrix(1 0 0 -1 0 111.5314)">
				<stop  offset="0" style="stop-color:#130000"/>
				<stop  offset="0.5347" style="stop-color:#FF00FF"/>
				<stop  offset="0.5781" style="stop-color:#000046"/>
				<stop  offset="1" style="stop-color:#00FFFF"/>
			</linearGradient>
			<path class="st0" d="M991.2,84.3c0,0,0-34,0-56.3c0-17.5-11.1-22.9-22.1-22.9c0,7.9,0,99.3,0,99.3v1h63.3V84.3H991.2z"/>
			
				<linearGradient id="SVGID_00000137117580409395667910000001199454009260866706_" gradientUnits="userSpaceOnUse" x1="1184.0425" y1="106.6527" x2="1184.0425" y2="9.7555" gradientTransform="matrix(1 0 0 -1 0 111.5314)">
				<stop  offset="0" style="stop-color:#130000"/>
				<stop  offset="0.5347" style="stop-color:#FF00FF"/>
				<stop  offset="0.5781" style="stop-color:#000046"/>
				<stop  offset="1" style="stop-color:#00FFFF"/>
			</linearGradient>
			
				<path style="fill:url(#SVGID_00000137117580409395667910000001199454009260866706_);stroke:#00FFFF;stroke-width:3;stroke-linecap:round;stroke-linejoin:round;stroke-miterlimit:10;" d="
				M1205.9,50.4c8-3.8,12.6-10.8,12.6-21.6c0-13.9-11.4-23.3-28.4-23.3h-24.8h-15.6h-6.6v99.9h22.1v-0.1h27.8
				c21.1,0,31.9-11.2,31.9-30.2C1224.9,61.4,1216,54.2,1205.9,50.4z M1187.8,24.1c6,0,10.9,4.8,10.9,10.8s-4.9,10.8-10.9,10.8h-22.6
				V24.1H1187.8z M1192.9,86.8h-12.1h-15.6V64.4c13,0,28.1,0,28.1,0c6.4,0,11.6,5.2,11.6,11.5C1204.9,82.3,1199.3,86.8,1192.9,86.8z
				"/>
		</g>
		
			<linearGradient id="SVGID_00000089546241190680639620000014902991108840717245_" gradientUnits="userSpaceOnUse" x1="1088.6426" y1="106.6527" x2="1088.6426" y2="9.7555" gradientTransform="matrix(1 0 0 -1 0 111.5314)">
			<stop  offset="0" style="stop-color:#130000"/>
			<stop  offset="0.5347" style="stop-color:#FF00FF"/>
			<stop  offset="0.5781" style="stop-color:#000046"/>
			<stop  offset="1" style="stop-color:#00FFFF"/>
		</linearGradient>
		
			<path style="fill:url(#SVGID_00000089546241190680639620000014902991108840717245_);stroke:#00FFFF;stroke-width:3;stroke-linecap:round;stroke-linejoin:round;stroke-miterlimit:10;" d="
			M1088.6,3.6c-10.4,4.3-42,24.5-42,101.7c7.9,0,12,0,19.9,0c0-14.5,11.9-23,22.1-22.5c10.2-0.5,22.1,7.9,22.1,22.5
			c7.9,0,12,0,19.9,0C1130.6,28.1,1099.1,7.8,1088.6,3.6z M1088.6,63.7c-8.1,0.1-15.7,2.6-20.5,8.3c2.4-20.2,10.8-36.3,20.5-44.4
			c9.7,8.1,18.2,24.2,20.5,44.4C1104.4,66.2,1096.7,63.7,1088.6,63.7z"/>
	</g>
</g>
<g id="Logo_Clone">
	<g>
		<g>
			
				<linearGradient id="SVGID_00000114766067378801549320000010970140775619608453_" gradientUnits="userSpaceOnUse" x1="658.2426" y1="106.6527" x2="658.2426" y2="9.7555" gradientTransform="matrix(1 0 0 -1 0 111.5314)">
				<stop  offset="0" style="stop-color:#130000"/>
				<stop  offset="0.5347" style="stop-color:#FF00FF"/>
				<stop  offset="0.5781" style="stop-color:#000046"/>
				<stop  offset="1" style="stop-color:#00FFFF"/>
			</linearGradient>
			<circle style="fill:url(#SVGID_00000114766067378801549320000010970140775619608453_);" cx="658.2" cy="55.3" r="51.7"/>
		</g>
		<g>
			<circle class="st4" cx="658.2" cy="55.3" r="51.7"/>
		</g>
	</g>
	
		<linearGradient id="SVGID_00000036237611481303627370000004225831017298939271_" gradientUnits="userSpaceOnUse" x1="571.1926" y1="106.6527" x2="571.1926" y2="9.7555" gradientTransform="matrix(1 0 0 -1 0 111.5314)">
		<stop  offset="0" style="stop-color:#130000"/>
		<stop  offset="0.5347" style="stop-color:#FF00FF"/>
		<stop  offset="0.5781" style="stop-color:#000046"/>
		<stop  offset="1" style="stop-color:#00FFFF"/>
	</linearGradient>
	
		<path style="fill:url(#SVGID_00000036237611481303627370000004225831017298939271_);stroke:#00FFFF;stroke-width:3;stroke-linecap:round;stroke-linejoin:round;stroke-miterlimit:10;" d="
		M562.4,84.3c0,0,0-34,0-56.3c0-17.5-11.1-22.9-22.1-22.9c0,7.9,0,99.3,0,99.3v1H602V84.3H562.4z"/>
	
		<linearGradient id="SVGID_00000023982376686243330640000005434199437300883871_" gradientUnits="userSpaceOnUse" x1="765.0426" y1="106.6527" x2="765.0426" y2="9.7555" gradientTransform="matrix(1 0 0 -1 0 111.5314)">
		<stop  offset="0" style="stop-color:#130000"/>
		<stop  offset="0.5347" style="stop-color:#FF00FF"/>
		<stop  offset="0.5781" style="stop-color:#000046"/>
		<stop  offset="1" style="stop-color:#00FFFF"/>
	</linearGradient>
	
		<path style="fill:url(#SVGID_00000023982376686243330640000005434199437300883871_);stroke:#00FFFF;stroke-width:3;stroke-linecap:round;stroke-linejoin:round;stroke-miterlimit:10;" d="
		M805.6,5.1h-20.8v53.3c-9.6-26.6-32.5-50.5-60.5-53.3c0,15.8,0,100.3,0,100.3h20.8c0,0,0-35.7,0-68.2c17,11.3,29.8,37.8,37.2,68.2
		c6.1,0,23.4,0,23.4,0L805.6,5.1z"/>
	
		<linearGradient id="SVGID_00000118397154885831723280000002054812204680776065_" gradientUnits="userSpaceOnUse" x1="486.3426" y1="106.6527" x2="486.3426" y2="9.7555" gradientTransform="matrix(1 0 0 -1 0 111.5314)">
		<stop  offset="0" style="stop-color:#130000"/>
		<stop  offset="0.5347" style="stop-color:#FF00FF"/>
		<stop  offset="0.5781" style="stop-color:#000046"/>
		<stop  offset="1" style="stop-color:#00FFFF"/>
	</linearGradient>
	
		<path style="fill:url(#SVGID_00000118397154885831723280000002054812204680776065_);stroke:#00FFFF;stroke-width:3;stroke-linecap:round;stroke-linejoin:round;stroke-miterlimit:10;" d="
		M525.1,78.1c-7.2,5.6-15.9,8.5-26.7,8.5c-16,0-29.2-13.6-29.2-30.3S482.5,26,499.1,26c10.9,0,18.6,3,24,6.5V12.1
		c-5.9-3.7-14.4-6.6-23.6-6.6c-28.5,0-52,22.7-52,50.7s22.7,50.7,50.7,50.7c3.8,0,7.8-0.4,11.7-1.1c5.5-1,10.8-2.8,15.2-5.3
		L525.1,78.1z"/>
	
		<linearGradient id="SVGID_00000005980759570801060900000009309891785866912390_" gradientUnits="userSpaceOnUse" x1="862.0926" y1="106.6527" x2="862.0926" y2="9.7555" gradientTransform="matrix(1 0 0 -1 0 111.5314)">
		<stop  offset="0" style="stop-color:#130000"/>
		<stop  offset="0.5347" style="stop-color:#FF00FF"/>
		<stop  offset="0.5781" style="stop-color:#000046"/>
		<stop  offset="1" style="stop-color:#00FFFF"/>
	</linearGradient>
	
		<path style="fill:url(#SVGID_00000005980759570801060900000009309891785866912390_);stroke:#00FFFF;stroke-width:3;stroke-linecap:round;stroke-linejoin:round;stroke-miterlimit:10;" d="
		M900.1,105.4c0-6.7-2.5-21-20.2-21c-8.7,0-22.1,0-33.7,0V65.6h42.3V45.5c0,0-23.5,0-42.3,0V26.1c11.1,0,23.9,0,32.4,0
		c17.8,0,20.2-14.3,20.2-21c-18.7,0-74.8,0-74.8,0v99.3l0,0v1C824.1,105.4,881.4,105.4,900.1,105.4z"/>
</g>
<g id="Logo_Circles">
	<g>
		<path class="st9" d="M668.5,27.5c-2.1,0-4.1,0.6-5.9,1.7c6.6,3.9,11.3,14.1,11.2,26.1s-4.8,22.2-11.5,26.1
			c1.8,1.1,3.8,1.7,5.9,1.7c9.5,0,17.3-12.4,17.4-27.8C685.8,39.9,678.1,27.5,668.5,27.5z"/>
		<path class="st9" d="M656.7,35c1.7-2.6,3.7-4.6,5.9-5.9c-1.8-1.1-3.8-1.7-5.9-1.7s-4.1,0.6-5.9,1.7C653,30.5,655,32.5,656.7,35z"
			/>
		<path class="st9" d="M656.5,75.5c-1.7,2.6-3.7,4.6-5.9,5.9c1.8,1.1,3.8,1.7,5.9,1.7s4.1-0.6,5.9-1.7C660.2,80,658.2,78,656.5,75.5
			z"/>
		<path class="st9" d="M673.9,55.3c0.1-12-4.6-22.2-11.2-26.1c-2.2,1.3-4.2,3.3-5.9,5.9c3.3,5.1,5.4,12.2,5.4,20.2
			s-2.2,15.2-5.5,20.2c1.7,2.6,3.7,4.6,5.9,5.9C669,77.5,673.8,67.3,673.9,55.3z"/>
		<path class="st9" d="M639.3,55.3c0.1-12,4.8-22.2,11.5-26.1c-1.8-1.1-3.8-1.7-5.9-1.7c-9.5,0-17.3,12.4-17.4,27.8
			c-0.1,15.4,7.6,27.8,17.2,27.8c2.1,0,4.1-0.6,5.9-1.7C644,77.5,639.3,67.3,639.3,55.3z"/>
		<path class="st9" d="M656.5,75.5c-3.3-5.1-5.4-12.2-5.4-20.2s2.2-15.2,5.5-20.2c-1.7-2.6-3.7-4.6-5.9-5.9
			c-6.6,3.9-11.4,14.1-11.5,26.1s4.6,22.2,11.2,26.1C652.8,80,654.8,78,656.5,75.5z"/>
		<path class="st9" d="M656.5,75.5c3.4-5.1,5.5-12.2,5.5-20.2s-2-15.2-5.4-20.2c-3.4,5.1-5.5,12.2-5.5,20.2
			C651.1,63.2,653.2,70.4,656.5,75.5z"/>
	</g>
</g>
<g id="Logo_Alien">
	
		<linearGradient id="SVGID_00000119838071606411676300000006884509851609413276_" gradientUnits="userSpaceOnUse" x1="131.6426" y1="106.6527" x2="131.6426" y2="9.7555" gradientTransform="matrix(1 0 0 -1 0 111.5314)">
		<stop  offset="0" style="stop-color:#130000"/>
		<stop  offset="0.5347" style="stop-color:#FF00FF"/>
		<stop  offset="0.5781" style="stop-color:#000046"/>
		<stop  offset="1" style="stop-color:#00FFFF"/>
	</linearGradient>
	
		<path style="fill:url(#SVGID_00000119838071606411676300000006884509851609413276_);stroke:#00FFFF;stroke-width:3;stroke-linecap:round;stroke-linejoin:round;stroke-miterlimit:10;" d="
		M124.9,84.7c0,0,0-35.2,0-57.5c0-15.8-10.1-22.1-22.1-22.1c0,7.9,0,99.3,0,99.3v1h57.6V84.7L124.9,84.7z"/>
	
		<linearGradient id="SVGID_00000120538118579077088390000004529544159149419198_" gradientUnits="userSpaceOnUse" x1="342.9426" y1="106.6527" x2="342.9426" y2="9.7555" gradientTransform="matrix(1 0 0 -1 0 111.5314)">
		<stop  offset="0" style="stop-color:#130000"/>
		<stop  offset="0.5347" style="stop-color:#FF00FF"/>
		<stop  offset="0.5781" style="stop-color:#000046"/>
		<stop  offset="1" style="stop-color:#00FFFF"/>
	</linearGradient>
	
		<path style="fill:url(#SVGID_00000120538118579077088390000004529544159149419198_);stroke:#00FFFF;stroke-width:3;stroke-linecap:round;stroke-linejoin:round;stroke-miterlimit:10;" d="
		M383.5,5.1h-20.8v53.3c-9.5-26.6-32.4-50.5-60.5-53.3c0,15.8,0,100.3,0,100.3H323c0,0,0-8,0-20c0-13.2,0-31.2,0-48.3
		c17,11.3,29.8,37.8,37.2,68.2c6.1,0,23.4,0,23.4,0L383.5,5.1z"/>
	
		<linearGradient id="SVGID_00000173120157290506485100000013320619692267760517_" gradientUnits="userSpaceOnUse" x1="181.9926" y1="106.5657" x2="181.9926" y2="9.6685" gradientTransform="matrix(1 0 0 -1 0 111.5314)">
		<stop  offset="0" style="stop-color:#130000"/>
		<stop  offset="0.5347" style="stop-color:#FF00FF"/>
		<stop  offset="0.5781" style="stop-color:#000046"/>
		<stop  offset="1" style="stop-color:#00FFFF"/>
	</linearGradient>
	
		<path style="fill:url(#SVGID_00000173120157290506485100000013320619692267760517_);stroke:#00FFFF;stroke-width:3;stroke-linecap:round;stroke-linejoin:round;stroke-miterlimit:10;" d="
		M170.9,5.1c0,0,0,57.1,0,74.9c0,17.5,11.1,25.3,22.1,25.3c0-6.2,0-41.8,0-100.3h-22.1V5.1z"/>
	
		<linearGradient id="SVGID_00000081635110185369075580000003229844315025365155_" gradientUnits="userSpaceOnUse" x1="249.9926" y1="106.6527" x2="249.9926" y2="9.7555" gradientTransform="matrix(1 0 0 -1 0 111.5314)">
		<stop  offset="0" style="stop-color:#130000"/>
		<stop  offset="0.5347" style="stop-color:#FF00FF"/>
		<stop  offset="0.5781" style="stop-color:#000046"/>
		<stop  offset="1" style="stop-color:#00FFFF"/>
	</linearGradient>
	
		<path style="fill:url(#SVGID_00000081635110185369075580000003229844315025365155_);stroke:#00FFFF;stroke-width:3;stroke-linecap:round;stroke-linejoin:round;stroke-miterlimit:10;" d="
		M288,105.4c0-6.7-2.5-21-20.2-21c-8.7,0-22.1,0-33.7,0V65.6h42.3V45.5c0,0-23.5,0-42.3,0V26.1c11.1,0,23.9,0,32.4,0
		c17.8,0,20.2-14.3,20.2-21c-18.7,0-74.8,0-74.8,0v99.3l0,0v1C212,105.4,269.3,105.4,288,105.4z"/>
	
		<linearGradient id="SVGID_00000125563210837325028890000008602819223917317008_" gradientUnits="userSpaceOnUse" x1="47.1426" y1="106.6527" x2="47.1426" y2="9.7555" gradientTransform="matrix(1 0 0 -1 0 111.5314)">
		<stop  offset="0" style="stop-color:#130000"/>
		<stop  offset="0.5347" style="stop-color:#FF00FF"/>
		<stop  offset="0.5781" style="stop-color:#000046"/>
		<stop  offset="1" style="stop-color:#00FFFF"/>
	</linearGradient>
	
		<path style="fill:url(#SVGID_00000125563210837325028890000008602819223917317008_);stroke:#00FFFF;stroke-width:3;stroke-linecap:round;stroke-linejoin:round;stroke-miterlimit:10;" d="
		M47.1,3.6c-10.4,4.3-42,24.5-42,101.7c7.9,0,12,0,19.9,0c0-14.5,11.9-23,22.1-22.5c10.2-0.5,22.1,7.9,22.1,22.5c7.9,0,12,0,19.9,0
		C89.1,28.1,57.5,7.8,47.1,3.6z M47.1,63.7C39,63.8,31.4,66.3,26.6,72C29,51.8,37.4,35.7,47.1,27.6c9.7,8.1,18.2,24.2,20.5,44.4
		C62.8,66.2,55.2,63.7,47.1,63.7z"/>
</g>
</svg>
