<svg
 xmlns="http://www.w3.org/2000/svg"
 xmlns:xlink="http://www.w3.org/1999/xlink"
 width="233px" height="276px">
<defs>
<linearGradient id="PSgrad_0" x1="0%" x2="100%" y1="0%" y2="0%">
  <stop offset="0%" stop-color="rgb(22,170,192)" stop-opacity="1" />
  <stop offset="5%" stop-color="rgb(38,47,124)" stop-opacity="1" />
  <stop offset="17%" stop-color="rgb(36,104,179)" stop-opacity="1" />
  <stop offset="36%" stop-color="rgb(34,33,100)" stop-opacity="1" />
  <stop offset="60%" stop-color="rgb(37,40,113)" stop-opacity="1" />
  <stop offset="78%" stop-color="rgb(10,77,151)" stop-opacity="1" />
  <stop offset="94%" stop-color="rgb(35,38,108)" stop-opacity="1" />
  <stop offset="100%" stop-color="rgb(22,170,192)" stop-opacity="1" />
</linearGradient>

</defs>
<path fill-rule="evenodd"  fill="rgb(0, 255, 0)"
 d="M224.315,270.783 C222.043,270.122 220.555,274.169 223.807,275.524 C227.059,276.879 226.855,271.522 224.315,270.783 Z"/>
<path fill-rule="evenodd"  fill="rgb(255, 0, 176)"
 d="M194.057,264.598 C191.515,264.089 189.850,268.235 193.488,269.372 C197.126,270.509 196.899,265.166 194.057,264.598 Z"/>
<path fill-rule="evenodd"  fill="rgb(0, 255, 255)"
 d="M167.012,261.703 C171.412,261.523 178.419,262.451 182.431,263.196 C187.024,264.049 187.072,269.175 181.950,268.280 C179.020,267.768 172.825,266.927 168.338,266.892 C163.992,266.858 163.788,261.835 167.012,261.703 Z"/>
<path fill-rule="evenodd"  fill="rgb(0, 255, 255)"
 d="M155.634,260.299 C152.910,259.986 151.127,264.261 155.025,265.117 C158.924,265.973 158.680,260.648 155.634,260.299 Z"/>
<path fill-rule="evenodd"  fill="rgb(0, 255, 255)"
 d="M57.913,262.930 C54.844,262.930 54.342,267.485 57.639,267.478 C61.624,267.468 60.982,262.930 57.913,262.930 Z"/>
<path fill-rule="evenodd"  fill="rgb(0, 255, 0)"
 d="M47.521,263.612 C44.452,263.612 43.542,268.387 47.521,268.160 C51.500,267.932 50.591,263.612 47.521,263.612 Z"/>
<path fill-rule="evenodd"  fill="rgb(255, 0, 176)"
 d="M20.783,267.869 C24.905,266.411 31.070,265.316 34.866,264.885 C39.210,264.391 39.910,269.418 35.068,270.024 C32.297,270.370 26.449,271.342 22.237,272.612 C18.157,273.843 17.763,268.937 20.783,267.869 Z"/>
<path fill-rule="evenodd"  fill="url(#PSgrad_0)"
 d="M232.253,18.381 L1.454,18.381 L0.601,18.381 L0.601,266.811 C1.791,254.966 52.274,248.606 120.991,248.606 C184.078,248.606 229.093,255.515 232.584,266.811 L232.584,18.381 L232.253,18.381 Z"/>
<path fill-rule="evenodd"  fill="rgb(0, 186, 255)"
 d="M120.724,0.195 C50.960,0.195 0.668,6.707 0.668,18.833 C0.668,30.959 58.747,35.361 119.103,35.967 C179.459,36.573 232.651,30.223 232.651,18.400 C232.651,6.577 184.000,0.195 120.724,0.195 Z"/>
<path fill-rule="evenodd"  fill="rgb(0, 0, 110)"
 d="M205.137,13.296 C187.808,9.914 152.866,8.294 118.957,8.051 C85.396,7.810 48.734,9.955 29.988,13.326 C22.130,14.739 17.399,16.365 17.399,18.124 C17.399,24.797 65.177,28.220 115.112,28.220 C170.167,28.220 216.292,25.135 216.292,18.291 C216.292,16.320 212.149,14.664 205.137,13.296 Z"/>
<path fill-rule="evenodd"  fill="rgb(0, 255, 255)"
 d="M29.988,13.326 C22.130,14.739 17.399,16.365 17.399,18.124 C17.399,24.797 65.177,28.220 115.112,28.220 C170.167,28.220 216.292,25.135 216.292,18.291 C216.292,16.321 212.156,14.667 205.154,13.299 C188.233,16.595 153.889,18.126 115.112,18.126 C80.771,18.126 47.450,16.507 29.988,13.326 Z"/>
</svg>
