<?xml version="1.0" encoding="utf-8"?>
<!-- Generator: Adobe Illustrator 27.0.0, SVG Export Plug-In . SVG Version: 6.00 Build 0)  -->
<svg version="1.0" id="Egg3" xmlns="http://www.w3.org/2000/svg" xmlns:xlink="http://www.w3.org/1999/xlink" x="0px" y="0px"
	 viewBox="0 0 58.9 80.1" enable-background="new 0 0 58.9 80.1" xml:space="preserve">
<g>
	<g>
		
			<radialGradient id="SVGID_1_" cx="890.554" cy="8.1436" r="42.7964" gradientTransform="matrix(2.635 0 0 -2.635 -2281.3733 124.0473)" gradientUnits="userSpaceOnUse">
			<stop  offset="0" style="stop-color:#130000"/>
			<stop  offset="0.5347" style="stop-color:#FF00FF"/>
			<stop  offset="0.5781" style="stop-color:#000046"/>
			<stop  offset="1" style="stop-color:#00FFFF"/>
		</radialGradient>
		<polygon fill="url(#SVGID_1_)" points="42.5,0 31.1,23.8 15.6,10 		"/>
		
			<radialGradient id="SVGID_00000083052907154428665640000017009729436589335705_" cx="880.0075" cy="9.0601" r="38.1878" gradientTransform="matrix(2.635 0 0 -2.635 -2281.3733 124.0473)" gradientUnits="userSpaceOnUse">
			<stop  offset="0" style="stop-color:#130000"/>
			<stop  offset="0.5347" style="stop-color:#FF00FF"/>
			<stop  offset="0.5781" style="stop-color:#000046"/>
			<stop  offset="1" style="stop-color:#00FFFF"/>
		</radialGradient>
		<polygon fill="url(#SVGID_00000083052907154428665640000017009729436589335705_)" points="31.1,23.8 34.4,34.5 13.5,65.5 
			5.7,46.9 		"/>
		
			<radialGradient id="SVGID_00000098900850534362604240000005266522051463549844_" cx="884.4658" cy="3.0658" r="43.2738" gradientTransform="matrix(2.635 0 0 -2.635 -2281.3733 124.0473)" gradientUnits="userSpaceOnUse">
			<stop  offset="0" style="stop-color:#130000"/>
			<stop  offset="0.5347" style="stop-color:#FF00FF"/>
			<stop  offset="0.5781" style="stop-color:#000046"/>
			<stop  offset="1" style="stop-color:#00FFFF"/>
		</radialGradient>
		<polygon fill="url(#SVGID_00000098900850534362604240000005266522051463549844_)" points="15.6,10 31.1,23.8 5.7,46.9 0,32.8 		
			"/>
		
			<radialGradient id="SVGID_00000018238499708704119030000007192990573088893078_" cx="883.8586" cy="14.1383" r="28.378" gradientTransform="matrix(2.635 0 0 -2.635 -2281.3733 124.0473)" gradientUnits="userSpaceOnUse">
			<stop  offset="0" style="stop-color:#130000"/>
			<stop  offset="0.5347" style="stop-color:#FF00FF"/>
			<stop  offset="0.5781" style="stop-color:#000046"/>
			<stop  offset="1" style="stop-color:#00FFFF"/>
		</radialGradient>
		<polygon fill="url(#SVGID_00000018238499708704119030000007192990573088893078_)" points="13.5,65.5 16.5,80.1 38.6,76.7 
			51.8,50.7 34.4,34.5 		"/>
		<polygon fill="#93FFFF" points="42.5,0 19.6,10.4 31.1,23.8 16,13 0,32.8 15.6,10 		"/>
		<g>
			
				<radialGradient id="SVGID_00000129919713827840038810000014554873082650093200_" cx="0" cy="131.6" r="0" gradientTransform="matrix(1 0 0 -1 0 164.4)" gradientUnits="userSpaceOnUse">
				<stop  offset="0" style="stop-color:#130000"/>
				<stop  offset="0.5347" style="stop-color:#FF00FF"/>
				<stop  offset="0.5781" style="stop-color:#000046"/>
				<stop  offset="1" style="stop-color:#00FFFF"/>
			</radialGradient>
			<path fill="url(#SVGID_00000129919713827840038810000014554873082650093200_)" d="M0,32.8L0,32.8L0,32.8z"/>
			<polygon fill="#93FFFF" points="23.7,30.6 6,44.4 0,32.8 0,32.8 0,32.8 5.7,46.9 13.5,65.5 7.7,46.9 			"/>
			<polygon fill="#93FFFF" points="23.7,30.6 6,44.4 0,32.8 0,32.8 0,32.8 5.4,47.9 13.5,65.5 7.7,46.9 			"/>
		</g>
	</g>
	
		<radialGradient id="SVGID_00000110453775469207367310000011551541606774043580_" cx="36.6326" cy="150.3397" r="46.4906" gradientTransform="matrix(1 0 0 -1 0 164.4)" gradientUnits="userSpaceOnUse">
		<stop  offset="0" style="stop-color:#00FF00"/>
		<stop  offset="0" style="stop-color:#FF00FF"/>
		<stop  offset="1" style="stop-color:#00FFFF"/>
	</radialGradient>
	<polygon fill="url(#SVGID_00000110453775469207367310000011551541606774043580_)" points="42.5,0 37.3,23.8 44.8,27.5 41.7,35.9 
		58.9,48.5 42.3,69.5 51.8,50.7 34.4,34.5 31.1,23.8 	"/>
</g>
</svg>
