<?xml version="1.0" encoding="utf-8"?>
<!-- Generator: Adobe Illustrator 27.0.0, SVG Export Plug-In . SVG Version: 6.00 Build 0)  -->
<svg version="1.0" id="Egg4" xmlns="http://www.w3.org/2000/svg" xmlns:xlink="http://www.w3.org/1999/xlink" x="0px" y="0px"
	 viewBox="0 0 45.7 94.2" enable-background="new 0 0 45.7 94.2" xml:space="preserve">
<g>
	<g>
		
			<radialGradient id="SVGID_1_" cx="882.4456" cy="-21.8605" r="17.8926" gradientTransform="matrix(2.635 0 0 -2.635 -2309.6589 4.8193)" gradientUnits="userSpaceOnUse">
			<stop  offset="0" style="stop-color:#130000"/>
			<stop  offset="0.5347" style="stop-color:#FF00FF"/>
			<stop  offset="0.5781" style="stop-color:#000046"/>
			<stop  offset="1" style="stop-color:#00FFFF"/>
		</radialGradient>
		<polygon fill="url(#SVGID_1_)" points="17.3,0 2,36.1 9.3,54.3 23,14.1 		"/>
		
			<radialGradient id="SVGID_00000132771719335098044040000005177572865752103842_" cx="887.9978" cy="9.5299" r="50.3448" gradientTransform="matrix(2.635 0 0 -2.635 -2309.6589 4.8193)" gradientUnits="userSpaceOnUse">
			<stop  offset="0" style="stop-color:#130000"/>
			<stop  offset="0.5347" style="stop-color:#FF00FF"/>
			<stop  offset="0.5781" style="stop-color:#000046"/>
			<stop  offset="1" style="stop-color:#00FFFF"/>
		</radialGradient>
		<polygon fill="url(#SVGID_00000132771719335098044040000005177572865752103842_)" points="9.3,54.3 8.7,64.8 20.6,76.9 33.5,59.3 
			33.8,47.3 30.8,32.7 23,14.1 		"/>
		
			<radialGradient id="SVGID_00000098185136502873336410000011303059396817604794_" cx="867.9353" cy="-17.7791" r="42.083" gradientTransform="matrix(2.635 0 0 -2.635 -2309.6589 4.8193)" gradientUnits="userSpaceOnUse">
			<stop  offset="0" style="stop-color:#130000"/>
			<stop  offset="0.5347" style="stop-color:#FF00FF"/>
			<stop  offset="0.5781" style="stop-color:#000046"/>
			<stop  offset="1" style="stop-color:#00FFFF"/>
		</radialGradient>
		<polygon fill="url(#SVGID_00000098185136502873336410000011303059396817604794_)" points="8.7,64.8 0,72.7 5.6,94.2 20.6,76.9 		
			"/>
		
			<radialGradient id="SVGID_00000100353294231895926900000015832240869167615148_" cx="871.4161" cy="-8.6212" r="29.7787" gradientTransform="matrix(2.635 0 0 -2.635 -2309.6589 4.8193)" gradientUnits="userSpaceOnUse">
			<stop  offset="0" style="stop-color:#130000"/>
			<stop  offset="0.5347" style="stop-color:#FF00FF"/>
			<stop  offset="0.5781" style="stop-color:#000046"/>
			<stop  offset="1" style="stop-color:#00FFFF"/>
		</radialGradient>
		<polygon fill="url(#SVGID_00000100353294231895926900000015832240869167615148_)" points="2,36.1 9.3,54.3 8.7,64.8 0,72.7 		"/>
		<path fill="#93FFFF" d="M9.3,54.3l1,9.4l10.3,13.2L8.3,67.4L0,72.8c0,0,6.6-8.9,6.6-9.1S9.3,54.3,9.3,54.3z"/>
		<polygon fill="#93FFFF" points="17.3,0 3.8,36.1 9.3,54.3 3.8,42.7 0,72.7 2,36.1 		"/>
		<polygon fill="#93FFFF" points="17.3,0 21.3,14.1 14.6,38.9 23.5,18.5 30.8,32.7 23,14.1 		"/>
		<polygon fill="#93FFFF" points="6.9,89.7 0,72.7 5.6,94.2 20.6,76.9 		"/>
		<polygon fill="#93FFFF" points="6.9,89.7 0,72.7 5.6,94.2 7.3,93.5 20.6,76.9 		"/>
		<polygon fill="#93FFFF" points="33.8,47.3 31.9,58.7 20.6,76.9 33.5,59.3 		"/>
		<polygon fill="#93FFFF" points="33.8,47.3 31.9,58.7 20.6,76.9 33.8,59.8 		"/>
	</g>
	
		<radialGradient id="SVGID_00000015318713465623261010000005980684101370515353_" cx="22.9666" cy="89.1745" r="34.315" gradientTransform="matrix(1 0 0 -1 0 98.8)" gradientUnits="userSpaceOnUse">
		<stop  offset="0" style="stop-color:#00FF00"/>
		<stop  offset="0" style="stop-color:#FF00FF"/>
		<stop  offset="1" style="stop-color:#00FFFF"/>
	</radialGradient>
	<polygon fill="url(#SVGID_00000015318713465623261010000005980684101370515353_)" points="17.3,0 33.8,19.4 43.3,12.4 45.7,28.9 
		33.8,47.3 30.8,32.7 	"/>
</g>
</svg>
