<?xml version="1.0" encoding="utf-8"?>
<!-- Generator: Adobe Illustrator 27.0.0, SVG Export Plug-In . SVG Version: 6.00 Build 0)  -->
<svg version="1.0" id="Egg5" xmlns="http://www.w3.org/2000/svg" xmlns:xlink="http://www.w3.org/1999/xlink" x="0px" y="0px"
	 viewBox="0 0 86.6 89.5" enable-background="new 0 0 86.6 89.5" xml:space="preserve">
<radialGradient id="SVGID_1_" cx="9.9263" cy="-9.5011" r="27.7283" gradientTransform="matrix(1 0 0 -1 0 57.4)" gradientUnits="userSpaceOnUse">
	<stop  offset="0" style="stop-color:#00FF00"/>
	<stop  offset="0" style="stop-color:#FF00FF"/>
	<stop  offset="1" style="stop-color:#00FFFF"/>
</radialGradient>
<polygon fill="url(#SVGID_1_)" points="30.9,33 21.8,36.1 13.7,29.2 9.6,47.8 0,41 3.4,73.5 18.4,56.2 30.3,38.6 "/>
<g>
	<g>
		
			<radialGradient id="SVGID_00000067928918979163838540000008852645373252144552_" cx="908.3599" cy="-20.4552" r="44.2689" gradientTransform="matrix(2.635 0 0 -2.635 -2306.0618 -70.4252)" gradientUnits="userSpaceOnUse">
			<stop  offset="0" style="stop-color:#130000"/>
			<stop  offset="0.5347" style="stop-color:#FF00FF"/>
			<stop  offset="0.5781" style="stop-color:#000046"/>
			<stop  offset="1" style="stop-color:#00FFFF"/>
		</radialGradient>
		<polygon fill="url(#SVGID_00000067928918979163838540000008852645373252144552_)" points="82.7,26 86.6,34.1 57.6,61.8 53.7,23.2 
					"/>
		
			<radialGradient id="SVGID_00000170257657593764747410000008122117785907564735_" cx="888.7215" cy="-19.7919" r="46.7339" gradientTransform="matrix(2.635 0 0 -2.635 -2306.0618 -70.4252)" gradientUnits="userSpaceOnUse">
			<stop  offset="0" style="stop-color:#130000"/>
			<stop  offset="0.5347" style="stop-color:#FF00FF"/>
			<stop  offset="0.5781" style="stop-color:#000046"/>
			<stop  offset="1" style="stop-color:#00FFFF"/>
		</radialGradient>
		<polygon fill="url(#SVGID_00000170257657593764747410000008122117785907564735_)" points="31.6,26.6 31.3,38.6 57.6,61.8 
			53.7,23.2 		"/>
		
			<radialGradient id="SVGID_00000127038760268275505560000010040507352697234338_" cx="895.1406" cy="-32.9485" r="38.0305" gradientTransform="matrix(2.635 0 0 -2.635 -2306.0618 -70.4252)" gradientUnits="userSpaceOnUse">
			<stop  offset="0" style="stop-color:#130000"/>
			<stop  offset="0.5347" style="stop-color:#FF00FF"/>
			<stop  offset="0.5781" style="stop-color:#000046"/>
			<stop  offset="1" style="stop-color:#00FFFF"/>
		</radialGradient>
		<polygon fill="url(#SVGID_00000127038760268275505560000010040507352697234338_)" points="31.3,38.6 18.4,56.2 31.5,83.9 
			57.6,61.8 		"/>
		
			<radialGradient id="SVGID_00000106867291680787533660000016099668052401066894_" cx="884.704" cy="-36.8438" r="20.1764" gradientTransform="matrix(2.635 0 0 -2.635 -2306.0618 -70.4252)" gradientUnits="userSpaceOnUse">
			<stop  offset="0" style="stop-color:#130000"/>
			<stop  offset="0.5347" style="stop-color:#FF00FF"/>
			<stop  offset="0.5781" style="stop-color:#000046"/>
			<stop  offset="1" style="stop-color:#00FFFF"/>
		</radialGradient>
		<polygon fill="url(#SVGID_00000106867291680787533660000016099668052401066894_)" points="3.4,73.5 12.7,89.5 31.5,83.9 
			18.4,56.2 		"/>
		<g>
			<polygon fill="#93FFFF" points="18.4,56.2 3.4,73.5 12.7,89.5 7.3,72.3 			"/>
		</g>
		<g>
			<polygon fill="#93FFFF" points="32.4,37.4 31.6,26.6 30.3,38.6 18.4,56.2 31.2,41.4 57.6,61.8 			"/>
		</g>
		<polygon fill="#93FFFF" points="57.6,61.8 31.2,79.7 18.4,56.2 27.1,82.5 12.7,89.5 32.4,84.6 		"/>
	</g>
	
		<radialGradient id="SVGID_00000069361260445255244300000001664729967364198051_" cx="45.4367" cy="22.1923" r="22.9336" gradientTransform="matrix(1 0 0 -1 0 57.4)" gradientUnits="userSpaceOnUse">
		<stop  offset="0" style="stop-color:#00FF00"/>
		<stop  offset="0" style="stop-color:#FF00FF"/>
		<stop  offset="1" style="stop-color:#00FFFF"/>
	</radialGradient>
	<polygon fill="url(#SVGID_00000069361260445255244300000001664729967364198051_)" points="53.7,23.2 38,25.7 49,11.8 58.7,12.9 
		68.7,0 76.9,25.5 	"/>
</g>
</svg>
